<?xml version="1.0" standalone="no"?>
<!DOCTYPE svg PUBLIC "-//W3C//DTD SVG 1.1//EN" "http://www.w3.org/Graphics/SVG/1.1/DTD/svg11.dtd" >
<svg>
<metadata>
Created by FontForge 20120731 at Fri Apr 22 18:58:04 2016
 By ,,,
This typeface is for exclusive use by Mazda only. The typeface may only be used in projects relating to Mazda. (c)Copyright Mazda Motor Corporation. All rights reserved.
</metadata>
<defs>
<font id="Mazda-Regular" horiz-adv-x="905" >
  <font-face 
    font-family="Mazda"
    font-weight="400"
    font-stretch="normal"
    units-per-em="1000"
    panose-1="2 0 5 5 0 0 0 9 0 4"
    ascent="750"
    descent="-250"
    x-height="701"
    cap-height="701"
    bbox="-262 -273 1756 900"
    underline-thickness="50"
    underline-position="-50"
    unicode-range="U+0020-FB02"
  />
<missing-glyph horiz-adv-x="560" 
d="M50 700h460v-700h-460v700zM115 54h330v592h-330v-592z" />
    <glyph glyph-name=".notdef" horiz-adv-x="560" 
d="M50 700h460v-700h-460v700zM115 54h330v592h-330v-592z" />
    <glyph glyph-name=".null" horiz-adv-x="0" 
 />
    <glyph glyph-name="nonmarkingreturn" horiz-adv-x="0" 
 />
    <glyph glyph-name="space" unicode=" " horiz-adv-x="400" 
 />
    <glyph glyph-name="exclam" unicode="!" horiz-adv-x="364" 
d="M151 195h-127l291 506h138zM-16 131h146l-75 -131h-145z" />
    <glyph glyph-name="quotedbl" unicode="&#x22;" horiz-adv-x="471" 
d="M209 425h-121l159 276h131zM445 425h-121l159 276h131z" />
    <glyph glyph-name="numbersign" unicode="#" 
d="M147 528h167l100 173h131l-100 -173h211l100 173h131l-100 -173h169l-62 -97h-163l-92 -160h155l-62 -97h-149l-100 -174h-131l100 174h-211l-100 -174h-131l100 174h-188l63 97h181l92 160h-174zM297 271h211l92 160h-211z" />
    <glyph glyph-name="dollar" unicode="$" horiz-adv-x="927" 
d="M133 -118l75 118h-283l61 97h477q32 0 56 3t42.5 11.5t32.5 23.5t26 39q20 35 20 58q0 38 -67 53l-272 53q-71 14 -105 45t-34 75q0 38 27 85l19 32q21 37 46 61t57.5 38.5t74.5 20.5t98 6h126l76 120h112l-76 -120h256l-61 -96h-458q-30 0 -51.5 -3.5t-36.5 -12
t-26.5 -21t-22.5 -30.5q-20 -32 -20 -53q0 -25 25 -39t72 -23l242 -46q138 -26 138 -115q0 -41 -32 -99l-31 -51q-20 -35 -45 -56.5t-58.5 -34t-77.5 -17t-104 -4.5h-111l-74 -118h-113z" />
    <glyph glyph-name="percent" unicode="%" horiz-adv-x="1169" 
d="M478 575q18 29 18 44q0 22 -37 22h-82q-14 0 -24 -2t-18 -7t-15.5 -14t-16.5 -24l-30 -47q-18 -29 -18 -44q0 -22 37 -22h82q14 0 24 1.5t18 7t15.5 14.5t16.5 24zM543 511q-20 -32 -37 -52.5t-37.5 -32t-46.5 -16t-63 -4.5h-105q-49 0 -75 17t-26 49t25 73l40 66
q19 32 36.5 52.5t38 32t46.5 16t63 4.5h105q49 0 75 -17t26 -49t-25 -73zM253 0h-137l766 701h137zM888 169q18 29 18 44q0 22 -37 22h-82q-14 0 -24 -2t-18 -7t-15.5 -14t-16.5 -24l-30 -47q-18 -29 -18 -44q0 -22 37 -22h82q14 0 24 1.5t18 7t15.5 14.5t16.5 24zM953 105
q-20 -32 -37 -52.5t-37.5 -32t-46.5 -16t-63 -4.5h-105q-49 0 -75 17t-26 49t25 73l40 66q19 32 36.5 52.5t38 32t46.5 16t63 4.5h105q49 0 75 -17t26 -49t-25 -73z" />
    <glyph glyph-name="ampersand" unicode="&#x26;" horiz-adv-x="910" 
d="M614 527q6 39 -22.5 58.5t-85.5 19.5h-27q-39 0 -65 -10.5t-43 -40.5l-18 -31q-11 -19 -11 -42q0 -22 12 -46t40 -46l169 -135l48 78h134l-76 -129l-14 -22l107 -85l-55 -96l-120 93q-24 -24 -52 -42t-64 -29t-81.5 -16.5t-103.5 -5.5h-119q-85 0 -132 36t-47 93
q0 42 29 91l57 94q22 36 57 59.5t92 34.5q-15 31 -15 65q0 36 19 68l31 51q35 57 90 83t141 26h71q51 0 87.5 -10t60 -27.5t34 -41.5t10.5 -53q0 -19 -5 -42h-133zM292 324q-25 -2 -42.5 -5.5t-30.5 -10.5t-22.5 -17t-17.5 -24l-38 -64q-15 -26 -15 -47q0 -27 24.5 -43
t74.5 -16h99q59 0 100 15t75 50z" />
    <glyph glyph-name="quotesingle" unicode="'" horiz-adv-x="235" 
d="M209 425h-121l159 276h131z" />
    <glyph glyph-name="parenleft" unicode="(" horiz-adv-x="493" 
d="M162 -115q-92 0 -139.5 33.5t-47.5 97.5q0 35 16 81t45 94l235 393q39 66 74.5 110.5t73.5 71.5t81.5 38.5t99.5 11.5h105l-55 -96h-61q-29 0 -53 -8.5t-46 -26.5t-44 -47t-47 -71l-239 -398q-23 -39 -35.5 -69.5t-12.5 -52.5q0 -35 25.5 -50.5t80.5 -15.5h47l-56 -96
h-47z" />
    <glyph glyph-name="parenright" unicode=")" horiz-adv-x="493" 
d="M331 816q92 0 139.5 -33.5t47.5 -97.5q0 -35 -16 -81t-45 -94l-235 -393q-39 -66 -74.5 -110.5t-73.5 -71.5t-82 -38.5t-99 -11.5h-105l55 96h61q29 0 53 8.5t46 26.5t44 47t47 71l239 398q23 39 35.5 69.5t12.5 52.5q0 35 -25.5 50.5t-80.5 15.5h-47l56 96h47z" />
    <glyph glyph-name="asterisk" unicode="*" horiz-adv-x="464" 
d="M246 513h-94l35 64h94l-38 82l73 21l38 -82l93 82l49 -40l-74 -63h104l-36 -64h-96l38 -81l-73 -21l-40 84l-103 -89l-47 41z" />
    <glyph glyph-name="plus" unicode="+" horiz-adv-x="689" 
d="M289 136h-132l90 167h-207l57 103h205l90 167h134l-91 -167h214l-59 -103h-211z" />
    <glyph glyph-name="comma" unicode="," horiz-adv-x="321" 
d="M-112 0l75 131h146l-63 -108q-29 -51 -65 -101.5t-68 -88.5h-70l100 167h-55z" />
    <glyph glyph-name="hyphen" unicode="-" horiz-adv-x="540" 
d="M38 303l65 103h399l-64 -103h-400z" />
    <glyph glyph-name="period" unicode="." horiz-adv-x="321" 
d="M-35 131h146l-76 -131h-145z" />
    <glyph glyph-name="slash" unicode="/" horiz-adv-x="575" 
d="M-22 0h-147l766 701h147z" />
    <glyph glyph-name="zero" unicode="0" horiz-adv-x="927" 
d="M151 286q-49 -79 -49 -123q0 -35 29 -50.5t86 -15.5h192q49 0 84 5.5t63.5 21.5t54 46t55.5 78l104 168q49 79 49 123q0 35 -29 50.5t-86 15.5h-193q-48 0 -83 -6t-64 -22.5t-54.5 -46t-54.5 -76.5zM127 471q43 70 80 115t80.5 70.5t99 35t134.5 9.5h239
q97 0 146.5 -33.5t49.5 -98.5q0 -72 -62 -174l-100 -164q-43 -71 -80.5 -115.5t-81 -70.5t-99 -35.5t-133.5 -9.5h-239q-97 0 -146.5 34t-49.5 99q0 73 62 173z" />
    <glyph glyph-name="one" unicode="1" horiz-adv-x="465" 
d="M127 583l356 118h111l-404 -701h-131l333 577l-334 -111z" />
    <glyph glyph-name="two" unicode="2" horiz-adv-x="828" 
d="M713 701q89 0 129.5 -33t40.5 -81q0 -43 -28 -91l-43 -73q-18 -30 -36 -49t-41 -32t-53.5 -22t-73.5 -18l-365 -78q-39 -8 -66 -16t-47 -19t-34.5 -25.5t-27.5 -36.5l-17 -30h604l-56 -97h-734l72 125q27 48 54.5 80t59.5 53t70.5 34t88.5 24l375 83q26 6 44 11
t31.5 11.5t23.5 16.5t19 25l24 40q20 32 20 55q0 22 -19.5 34.5t-64.5 12.5h-191q-74 0 -113 -18t-61 -56l-24 -41h-130l25 44q26 45 55 76.5t66 51.5t83.5 29.5t108.5 9.5h231z" />
    <glyph glyph-name="three" unicode="3" horiz-adv-x="768" 
d="M-119 97h432q34 0 59 3.5t44 11.5t33.5 22.5t28.5 37.5l28 45q18 30 18 50q0 40 -73 40h-319l56 97h251q48 0 82 3.5t58 12t40 22t29 33.5l25 41q16 26 16 44q0 20 -18 32t-56 12h-442l56 97h430q87 0 128 -31.5t41 -80.5q0 -42 -28 -89l-36 -61q-23 -39 -55.5 -63
t-91.5 -31q21 -9 33 -23.5t12 -37.5q0 -17 -8 -40.5t-26 -52.5l-34 -55q-23 -37 -47.5 -63t-57.5 -42t-76 -23.5t-101 -7.5h-487z" />
    <glyph glyph-name="four" unicode="4" horiz-adv-x="846" 
d="M715 701l-535 -443h334l96 165h130l-96 -165h133l-56 -93h-130l-95 -165h-131l95 165h-522l33 57l578 479h166z" />
    <glyph glyph-name="five" unicode="5" horiz-adv-x="786" 
d="M19 295l235 406h668l-61 -97h-532l-111 -191q26 14 60.5 20.5t80.5 6.5h211q71 0 110 -27t39 -76q0 -46 -35 -104l-35 -58q-27 -44 -51.5 -77t-59 -55t-83.5 -32.5t-124 -10.5h-471l56 97h422q43 0 72 6.5t50 19t37 31.5t31 44l33 53q22 34 22 56q0 36 -63 36h-208
q-39 0 -66.5 -2t-47 -7.5t-34 -15t-28.5 -23.5h-117z" />
    <glyph glyph-name="six" unicode="6" horiz-adv-x="845" 
d="M153 0q-97 0 -145 34.5t-48 94.5q0 62 48 143l120 199q42 71 80 115.5t82.5 70t100.5 35t135 9.5h421l-63 -96h-370q-48 0 -83.5 -6t-64.5 -22.5t-55.5 -46t-55.5 -76.5l-25 -41q23 11 54.5 17t77.5 6h217q54 0 91 -9.5t60 -26.5t33.5 -39.5t10.5 -48.5q0 -25 -8.5 -52
t-23.5 -53l-29 -52q-27 -48 -56 -78t-64.5 -47.5t-78 -23.5t-96.5 -6h-265zM617 220q21 36 21 61q0 58 -101 58h-230q-36 0 -61.5 -4t-44.5 -14t-34 -27t-30 -42l-22 -37q-20 -33 -20 -61q0 -58 100 -58h230q36 0 61.5 4t45 14t34.5 26.5t30 42.5z" />
    <glyph glyph-name="seven" unicode="7" horiz-adv-x="715" 
d="M208 701h657l-31 -58l-750 -644h-166l705 605h-471z" />
    <glyph glyph-name="eight" unicode="8" horiz-adv-x="847" 
d="M200 577q18 30 41.5 53t55.5 39t74 24t98 8h272q81 0 123.5 -30.5t42.5 -80.5q0 -38 -25 -81l-29 -51q-24 -43 -57 -66t-87 -36q20 -12 31 -28t11 -39q0 -35 -26 -78l-54 -89q-18 -32 -42.5 -55t-58.5 -38t-78 -22t-102 -7h-272q-51 0 -87 9t-59 24t-33.5 35.5
t-10.5 44.5q0 38 23 76l42 71q31 52 74.5 81t96.5 32q-28 31 -28 66q0 34 25 75zM281 497q-13 -23 -13 -40q0 -20 19.5 -33.5t66.5 -13.5h230q61 0 97.5 21t57.5 58l15 23q16 27 16 47q0 21 -17.5 33.5t-54.5 12.5h-245q-63 0 -98 -21.5t-57 -57.5zM74 182q-12 -21 -12 -39
q0 -21 20 -34t68 -13h268q61 0 96.5 20.5t58.5 58.5l25 42q17 28 17 49q0 22 -20 35t-65 13h-270q-61 0 -97.5 -20.5t-57.5 -58.5z" />
    <glyph glyph-name="nine" unicode="9" horiz-adv-x="845" 
d="M689 701q99 0 147 -34t48 -94q0 -61 -50 -144l-120 -199q-42 -71 -80 -115.5t-82.5 -70t-100.5 -35t-135 -9.5h-418l63 96h367q48 0 83.5 6t64.5 22.5t55.5 46t55.5 76.5l25 41q-23 -11 -54.5 -17t-77.5 -6h-217q-54 0 -91 9.5t-60 26.5t-33.5 39.5t-10.5 48.5
q0 25 8.5 52t23.5 53l29 52q27 48 56 78t64.5 47.5t78 23.5t96.5 6h265zM225 481q-21 -36 -21 -61q0 -58 101 -58h230q36 0 61.5 4t44.5 14t34 26.5t30 42.5l22 37q20 33 20 61q0 58 -100 58h-230q-36 0 -61.5 -4t-45 -14t-34.5 -27t-30 -42z" />
    <glyph glyph-name="colon" unicode=":" horiz-adv-x="331" 
d="M-35 131h146l-76 -131h-145zM197 531h146l-76 -131h-145z" />
    <glyph glyph-name="semicolon" unicode=";" horiz-adv-x="331" 
d="M-112 0l75 131h146l-63 -108q-29 -51 -65 -101.5t-68 -88.5h-70l100 167h-55zM194 531h146l-76 -131h-145z" />
    <glyph glyph-name="less" unicode="&#x3c;" horiz-adv-x="702" 
d="M51 304l54 100l591 185l-78 -136l-383 -116l295 -120l-56 -98z" />
    <glyph glyph-name="equal" unicode="=" horiz-adv-x="721" 
d="M662 406h-550l57 103h552zM548 200h-548l57 103h550z" />
    <glyph glyph-name="greater" unicode="&#x3e;" horiz-adv-x="702" 
d="M651 404l-54 -100l-591 -185l78 136l383 116l-295 120l56 98z" />
    <glyph glyph-name="question" unicode="?" horiz-adv-x="799" 
d="M241 202l42 74q15 25 32 42t36.5 27.5t41.5 17t46 11.5l132 27q20 4 35.5 8.5t27.5 11.5t22 17t19 25l25 40q10 16 15.5 30t5.5 26q0 21 -19.5 33.5t-63.5 12.5h-191q-74 0 -112.5 -18t-61.5 -56l-24 -41h-130l32 56q23 40 49.5 69.5t62 48.5t83 28t112.5 9h231
q88 0 128 -32.5t40 -80.5q0 -43 -29 -92l-45 -73q-18 -30 -35.5 -49.5t-36 -31.5t-38.5 -19t-44 -11l-145 -26q-26 -5 -52 -15t-43 -39l-17 -30h-131zM206 131h146l-75 -131h-145z" />
    <glyph glyph-name="at" unicode="@" horiz-adv-x="962" 
d="M854 701q88 0 125 -25.5t37 -66.5q0 -26 -12 -56t-32 -62l-179 -301h-358q-43 0 -73 7.5t-48.5 21t-27 31.5t-8.5 38q0 17 5.5 35.5t15.5 36.5l14 24q18 30 37.5 50.5t44 33t55 18t71.5 5.5h263q42 0 63 11.5t37 39.5q14 25 14 40q0 17 -16.5 24t-53.5 7h-313
q-54 0 -92 -5t-69 -21.5t-58.5 -48t-59.5 -83.5l-97 -159q-55 -88 -55 -136q0 -38 33 -55t97 -17h554l-53 -88h-539q-100 0 -152 35.5t-52 103.5q0 75 64 181l86 141q45 73 84 120t84 73.5t103 36.5t140 10h321zM731 278l88 146q-16 -11 -36.5 -16t-57.5 -5h-203
q-27 0 -43 -1.5t-26.5 -6t-17.5 -12.5t-15 -20l-8 -14q-13 -23 -13 -36q0 -17 18.5 -26t60.5 -9h253z" />
    <glyph glyph-name="A" unicode="A" horiz-adv-x="916" 
d="M237 255q24 11 53.5 16.5t71.5 5.5h224l-4 262zM588 180h-319q-53 0 -95 -9t-80 -42l-154 -129h-149l822 701h82l20 -701h-123z" />
    <glyph glyph-name="B" unicode="B" horiz-adv-x="913" 
d="M221 391q46 23 136 23h257q63 0 99 15t55 48l21 30q19 29 19 51q0 23 -20 35t-55 12h-388zM310 316q-39 0 -66.5 -3.5t-48 -13t-36 -27t-31.5 -45.5l-77 -130h440q59 0 96 13.5t63 56.5l24 40q23 36 23 61q0 48 -97 48h-290zM779 701q84 0 127 -31.5t43 -81.5
q0 -41 -28 -85l-31 -50q-21 -34 -54.5 -58t-90.5 -30q37 -9 59.5 -30t22.5 -56q0 -40 -32 -94l-29 -49q-23 -38 -50 -64t-62 -42t-81 -23t-106 -7h-602l404 701h510z" />
    <glyph glyph-name="C" unicode="C" horiz-adv-x="818" 
d="M625 97l-61 -97h-403q-96 0 -146 34t-50 99q0 73 62 173l100 165q43 70 79.5 115t79 70.5t97 35t133.5 9.5h430l-61 -96h-378q-48 0 -82.5 -6t-62.5 -22.5t-53 -46t-54 -76.5l-104 -168q-25 -40 -36.5 -70t-11.5 -53q0 -35 29 -50.5t86 -15.5h407z" />
    <glyph glyph-name="D" unicode="D" horiz-adv-x="971" 
d="M345 605l-294 -508h334q60 0 110.5 8.5t94 29.5t80 56t68.5 88l43 70q60 94 60 152q0 55 -51.5 79.5t-151.5 24.5h-293zM269 701h435q73 0 125 -12.5t85 -35.5t48.5 -55t15.5 -71q0 -40 -15 -85.5t-44 -94.5l-59 -95q-42 -69 -85.5 -117t-103.5 -78t-143.5 -43.5
t-204.5 -13.5h-458z" />
    <glyph glyph-name="E" unicode="E" horiz-adv-x="805" 
d="M885 605h-540l-118 -205q28 13 63 19t77 6h349l-55 -97h-312q-29 0 -58.5 -1t-56.5 -7t-49 -18.5t-36 -36.5l-98 -168h584l-56 -97h-714l404 701h672z" />
    <glyph glyph-name="F" unicode="F" horiz-adv-x="781" 
d="M879 605h-534l-136 -235q28 13 66 19t75 6h363l-56 -97h-327q-27 0 -56.5 -0.5t-56.5 -6.5t-49 -19t-35 -37l-137 -235h-131l404 701h666z" />
    <glyph glyph-name="G" unicode="G" horiz-adv-x="955" 
d="M161 0q-97 0 -146.5 34t-49.5 99q0 73 62 173l100 165q44 69 81 114t79 70.5t96 35.5t133 10h502l-61 -96h-450q-48 0 -82.5 -6t-62.5 -22.5t-53 -46t-54 -76.5l-104 -168q-49 -79 -49 -123q0 -35 29 -50.5t86 -15.5h232q49 0 83 5.5t61.5 21.5t52.5 45.5t55 78.5l30 48
h-305l59 96h438l-95 -161q-43 -69 -79.5 -114t-79.5 -71t-97.5 -36t-132.5 -10h-278z" />
    <glyph glyph-name="H" unicode="H" horiz-adv-x="908" 
d="M228 403h505l173 298h131l-405 -701h-131l177 306h-506l-176 -306h-131l404 701h131z" />
    <glyph glyph-name="I" unicode="I" horiz-adv-x="268" 
d="M-4 0h-131l404 701h131z" />
    <glyph glyph-name="J" unicode="J" horiz-adv-x="706" 
d="M242 97q32 0 57 7t48.5 25.5t47 50.5t53.5 83l256 438h131l-260 -453q-36 -63 -65.5 -110t-66.5 -77.5t-88.5 -45.5t-132.5 -15h-161q-71 0 -110.5 33.5t-39.5 85.5q0 21 7 44.5t22 47.5l61 99h123l-56 -92q-27 -45 -27 -72q0 -49 83 -49h118z" />
    <glyph glyph-name="K" unicode="K" horiz-adv-x="860" 
d="M211 373l596 328h184l-568 -312l275 -389h-144l-232 333l-197 -108l-129 -225h-131l404 701h131z" />
    <glyph glyph-name="L" unicode="L" horiz-adv-x="728" 
d="M51 97h541l-55 -97h-672l404 701h131z" />
    <glyph glyph-name="M" unicode="M" horiz-adv-x="1161" 
d="M297 527l-306 -527h-125l403 701h132l50 -563l668 563h170l-405 -701h-131l311 535l-634 -535h-82z" />
    <glyph glyph-name="N" unicode="N" horiz-adv-x="937" 
d="M661 0h-114l-232 560l-324 -560h-126l404 701h119l227 -560l325 560h126z" />
    <glyph glyph-name="O" unicode="O" horiz-adv-x="977" 
d="M151 286q-49 -79 -49 -123q0 -35 29 -50.5t86 -15.5h242q49 0 84 5.5t64 21.5t54.5 45.5t54.5 78.5l104 168q49 79 49 123q0 35 -29 50.5t-86 15.5h-243q-48 0 -83 -6t-64.5 -22.5t-55 -46t-53.5 -76.5zM127 471q44 69 81.5 114t81 70.5t98 35.5t133.5 10h289
q97 0 146.5 -33.5t49.5 -98.5q0 -72 -62 -174l-100 -164q-44 -70 -81.5 -114.5t-81 -70.5t-98.5 -36t-133 -10h-289q-97 0 -146.5 34t-49.5 99q0 73 62 173z" />
    <glyph glyph-name="P" unicode="P" horiz-adv-x="837" 
d="M345 605l-178 -309q24 15 56 19.5t69 4.5h203q42 0 71.5 2.5t52 11.5t40.5 26t36 47l44 70q31 49 31 78q0 26 -20 38t-57 12h-348zM740 701q88 0 131 -31t43 -84t-42 -120l-61 -97q-25 -39 -51.5 -66.5t-64 -45.5t-89.5 -26.5t-127 -8.5h-233q-36 0 -61.5 -3.5t-45 -13
t-34.5 -25.5t-29 -41l-80 -139h-131l404 701h471z" />
    <glyph glyph-name="Q" unicode="Q" horiz-adv-x="977" 
d="M127 471q44 69 81.5 114t81 70.5t98 35.5t133.5 10h289q97 0 146.5 -33.5t49.5 -98.5q0 -72 -62 -174l-100 -164q-44 -70 -81.5 -114.5t-81 -70.5t-98.5 -36t-133 -10h-91l-16 -27q-22 -36 -45.5 -62t-54 -43.5t-70.5 -26t-95 -8.5h-105l56 90h62q51 0 78.5 12.5
t47.5 45.5l11 19h-67q-97 0 -146.5 34t-49.5 99q0 73 62 173zM151 286q-49 -79 -49 -123q0 -35 29 -50.5t86 -15.5h71l35 56h130l-34 -56h40q49 0 84 5.5t64 21.5t54.5 45.5t54.5 78.5l104 168q49 79 49 123q0 35 -29 50.5t-86 15.5h-243q-48 0 -83 -6t-64.5 -22.5t-55 -46
t-53.5 -76.5z" />
    <glyph glyph-name="R" unicode="R" horiz-adv-x="895" 
d="M736 701q88 0 130.5 -32.5t42.5 -86.5q0 -52 -38 -116l-37 -61q-24 -41 -48.5 -69t-55 -46t-71 -26.5t-97.5 -10.5l132 -253h-135l-132 253h-162q-36 0 -62 -3.5t-45.5 -13t-34.5 -25.5t-29 -41l-98 -170h-131l404 701h467zM345 605l-159 -278q24 15 56 20t69 5h216
q40 0 68.5 2.5t49.5 10.5t36.5 23t30.5 41l30 51q14 23 20.5 42t6.5 33q0 50 -79 50h-345z" />
    <glyph glyph-name="S" unicode="S" horiz-adv-x="835" 
d="M659 112q-20 -35 -45 -56.5t-58.5 -34t-77.5 -17t-104 -4.5h-506l61 97h477q32 0 56 3t42.5 11.5t32.5 23.5t26 39q20 35 20 58q0 38 -67 53l-272 53q-71 14 -105 45t-34 75q0 38 27 85l19 32q21 37 46 61t57.5 38.5t74.5 20.5t98 6h494l-61 -96h-458q-30 0 -51.5 -3.5
t-36.5 -12t-26.5 -21t-22.5 -30.5q-20 -32 -20 -53q0 -25 25 -39t72 -23l242 -46q138 -26 138 -115q0 -41 -32 -99z" />
    <glyph glyph-name="T" unicode="T" horiz-adv-x="844" 
d="M205 701h824l-56 -96h-345l-350 -605h-131l349 605h-347z" />
    <glyph glyph-name="U" unicode="U" 
d="M909 701h132l-274 -462q-42 -68 -76.5 -114t-74 -74t-90.5 -39.5t-124 -11.5h-233q-93 0 -141 35t-48 100q0 33 13 73t40 87l243 406h132l-251 -422q-22 -35 -32 -62.5t-10 -48.5q0 -38 30.5 -54.5t82.5 -16.5h170q44 0 76.5 6t60 23t52.5 47.5t53 78.5z" />
    <glyph glyph-name="V" unicode="V" horiz-adv-x="862" 
d="M311 171l598 530h158l-798 -701h-75l5 701h116z" />
    <glyph glyph-name="W" unicode="W" horiz-adv-x="1225" 
d="M222 190l533 511h94l-57 -511l481 511h141l-667 -701h-94l58 528l-557 -528h-88l144 701h121z" />
    <glyph glyph-name="X" unicode="X" horiz-adv-x="853" 
d="M194 701h132l124 -268l407 268h182l-547 -360l158 -341h-133l-129 280l-424 -280h-180l562 371z" />
    <glyph glyph-name="Y" unicode="Y" horiz-adv-x="884" 
d="M409 351l506 350h162l-643 -444l-150 -257h-131l156 272l-119 429h121z" />
    <glyph glyph-name="Z" unicode="Z" horiz-adv-x="795" 
d="M98 97h562l-56 -97h-785l29 53l829 552h-529l56 96h749l-29 -53z" />
    <glyph glyph-name="bracketleft" unicode="[" horiz-adv-x="492" 
d="M-147 -115l556 931h257l-55 -96h-122l-442 -739h161l-56 -96h-299z" />
    <glyph glyph-name="backslash" unicode="\" horiz-adv-x="719" 
d="M208 701h111l186 -701h-111z" />
    <glyph glyph-name="bracketright" unicode="]" horiz-adv-x="493" 
d="M639 816l-556 -931h-257l55 96h122l442 739h-161l56 96h299z" />
    <glyph glyph-name="asciicircum" unicode="^" horiz-adv-x="792" 
d="M671 337l-56 -88l-253 98l-320 -98l63 107l293 87z" />
    <glyph glyph-name="underscore" unicode="_" horiz-adv-x="783" 
d="M-139 -50h641l-64 -103h-642z" />
    <glyph glyph-name="grave" unicode="`" horiz-adv-x="492" 
d="M146 900l305 -94l-45 -71l-308 89z" />
    <glyph glyph-name="a" unicode="a" horiz-adv-x="916" 
d="M237 255q24 11 53.5 16.5t71.5 5.5h224l-4 262zM588 180h-319q-53 0 -95 -9t-80 -42l-154 -129h-149l822 701h82l20 -701h-123z" />
    <glyph glyph-name="b" unicode="b" horiz-adv-x="913" 
d="M221 391q46 23 136 23h257q63 0 99 15t55 48l21 30q19 29 19 51q0 23 -20 35t-55 12h-388zM310 316q-39 0 -66.5 -3.5t-48 -13t-36 -27t-31.5 -45.5l-77 -130h440q59 0 96 13.5t63 56.5l24 40q23 36 23 61q0 48 -97 48h-290zM779 701q84 0 127 -31.5t43 -81.5
q0 -41 -28 -85l-31 -50q-21 -34 -54.5 -58t-90.5 -30q37 -9 59.5 -30t22.5 -56q0 -40 -32 -94l-29 -49q-23 -38 -50 -64t-62 -42t-81 -23t-106 -7h-602l404 701h510z" />
    <glyph glyph-name="c" unicode="c" horiz-adv-x="818" 
d="M625 97l-61 -97h-403q-96 0 -146 34t-50 99q0 73 62 173l100 165q43 70 79.5 115t79 70.5t97 35t133.5 9.5h430l-61 -96h-378q-48 0 -82.5 -6t-62.5 -22.5t-53 -46t-54 -76.5l-104 -168q-25 -40 -36.5 -70t-11.5 -53q0 -35 29 -50.5t86 -15.5h407z" />
    <glyph glyph-name="d" unicode="d" horiz-adv-x="971" 
d="M345 605l-294 -508h334q60 0 110.5 8.5t94 29.5t80 56t68.5 88l43 70q60 94 60 152q0 55 -51.5 79.5t-151.5 24.5h-293zM269 701h435q73 0 125 -12.5t85 -35.5t48.5 -55t15.5 -71q0 -40 -15 -85.5t-44 -94.5l-59 -95q-42 -69 -85.5 -117t-103.5 -78t-143.5 -43.5
t-204.5 -13.5h-458z" />
    <glyph glyph-name="e" unicode="e" horiz-adv-x="805" 
d="M885 605h-540l-118 -205q28 13 63 19t77 6h349l-55 -97h-312q-29 0 -58.5 -1t-56.5 -7t-49 -18.5t-36 -36.5l-98 -168h584l-56 -97h-714l404 701h672z" />
    <glyph glyph-name="f" unicode="f" horiz-adv-x="781" 
d="M879 605h-534l-136 -235q28 13 66 19t75 6h363l-56 -97h-327q-27 0 -56.5 -0.5t-56.5 -6.5t-49 -19t-35 -37l-137 -235h-131l404 701h666z" />
    <glyph glyph-name="g" unicode="g" horiz-adv-x="955" 
d="M161 0q-97 0 -146.5 34t-49.5 99q0 73 62 173l100 165q44 69 81 114t79 70.5t96 35.5t133 10h502l-61 -96h-450q-48 0 -82.5 -6t-62.5 -22.5t-53 -46t-54 -76.5l-104 -168q-49 -79 -49 -123q0 -35 29 -50.5t86 -15.5h232q49 0 83 5.5t61.5 21.5t52.5 45.5t55 78.5l30 48
h-305l59 96h438l-95 -161q-43 -69 -79.5 -114t-79.5 -71t-97.5 -36t-132.5 -10h-278z" />
    <glyph glyph-name="h" unicode="h" horiz-adv-x="908" 
d="M228 403h505l173 298h131l-405 -701h-131l177 306h-506l-176 -306h-131l404 701h131z" />
    <glyph glyph-name="i" unicode="i" horiz-adv-x="268" 
d="M-4 0h-131l404 701h131z" />
    <glyph glyph-name="j" unicode="j" horiz-adv-x="706" 
d="M242 97q32 0 57 7t48.5 25.5t47 50.5t53.5 83l256 438h131l-260 -453q-36 -63 -65.5 -110t-66.5 -77.5t-88.5 -45.5t-132.5 -15h-161q-71 0 -110.5 33.5t-39.5 85.5q0 21 7 44.5t22 47.5l61 99h123l-56 -92q-27 -45 -27 -72q0 -49 83 -49h118z" />
    <glyph glyph-name="k" unicode="k" horiz-adv-x="860" 
d="M211 373l596 328h184l-568 -312l275 -389h-144l-232 333l-197 -108l-129 -225h-131l404 701h131z" />
    <glyph glyph-name="l" unicode="l" horiz-adv-x="728" 
d="M51 97h541l-55 -97h-672l404 701h131z" />
    <glyph glyph-name="m" unicode="m" horiz-adv-x="1161" 
d="M297 527l-306 -527h-125l403 701h132l50 -563l668 563h170l-405 -701h-131l311 535l-634 -535h-82z" />
    <glyph glyph-name="n" unicode="n" horiz-adv-x="937" 
d="M661 0h-114l-232 560l-324 -560h-126l404 701h119l227 -560l325 560h126z" />
    <glyph glyph-name="o" unicode="o" horiz-adv-x="977" 
d="M151 286q-49 -79 -49 -123q0 -35 29 -50.5t86 -15.5h242q49 0 84 5.5t64 21.5t54.5 45.5t54.5 78.5l104 168q49 79 49 123q0 35 -29 50.5t-86 15.5h-243q-48 0 -83 -6t-64.5 -22.5t-55 -46t-53.5 -76.5zM127 471q44 69 81.5 114t81 70.5t98 35.5t133.5 10h289
q97 0 146.5 -33.5t49.5 -98.5q0 -72 -62 -174l-100 -164q-44 -70 -81.5 -114.5t-81 -70.5t-98.5 -36t-133 -10h-289q-97 0 -146.5 34t-49.5 99q0 73 62 173z" />
    <glyph glyph-name="p" unicode="p" horiz-adv-x="837" 
d="M345 605l-178 -309q24 15 56 19.5t69 4.5h203q42 0 71.5 2.5t52 11.5t40.5 26t36 47l44 70q31 49 31 78q0 26 -20 38t-57 12h-348zM740 701q88 0 131 -31t43 -84t-42 -120l-61 -97q-25 -39 -51.5 -66.5t-64 -45.5t-89.5 -26.5t-127 -8.5h-233q-36 0 -61.5 -3.5t-45 -13
t-34.5 -25.5t-29 -41l-80 -139h-131l404 701h471z" />
    <glyph glyph-name="q" unicode="q" horiz-adv-x="977" 
d="M127 471q44 69 81.5 114t81 70.5t98 35.5t133.5 10h289q97 0 146.5 -33.5t49.5 -98.5q0 -72 -62 -174l-100 -164q-44 -70 -81.5 -114.5t-81 -70.5t-98.5 -36t-133 -10h-91l-16 -27q-22 -36 -45.5 -62t-54 -43.5t-70.5 -26t-95 -8.5h-105l56 90h62q51 0 78.5 12.5
t47.5 45.5l11 19h-67q-97 0 -146.5 34t-49.5 99q0 73 62 173zM151 286q-49 -79 -49 -123q0 -35 29 -50.5t86 -15.5h71l35 56h130l-34 -56h40q49 0 84 5.5t64 21.5t54.5 45.5t54.5 78.5l104 168q49 79 49 123q0 35 -29 50.5t-86 15.5h-243q-48 0 -83 -6t-64.5 -22.5t-55 -46
t-53.5 -76.5z" />
    <glyph glyph-name="r" unicode="r" horiz-adv-x="895" 
d="M736 701q88 0 130.5 -32.5t42.5 -86.5q0 -52 -38 -116l-37 -61q-24 -41 -48.5 -69t-55 -46t-71 -26.5t-97.5 -10.5l132 -253h-135l-132 253h-162q-36 0 -62 -3.5t-45.5 -13t-34.5 -25.5t-29 -41l-98 -170h-131l404 701h467zM345 605l-159 -278q24 15 56 20t69 5h216
q40 0 68.5 2.5t49.5 10.5t36.5 23t30.5 41l30 51q14 23 20.5 42t6.5 33q0 50 -79 50h-345z" />
    <glyph glyph-name="s" unicode="s" horiz-adv-x="835" 
d="M659 112q-20 -35 -45 -56.5t-58.5 -34t-77.5 -17t-104 -4.5h-506l61 97h477q32 0 56 3t42.5 11.5t32.5 23.5t26 39q20 35 20 58q0 38 -67 53l-272 53q-71 14 -105 45t-34 75q0 38 27 85l19 32q21 37 46 61t57.5 38.5t74.5 20.5t98 6h494l-61 -96h-458q-30 0 -51.5 -3.5
t-36.5 -12t-26.5 -21t-22.5 -30.5q-20 -32 -20 -53q0 -25 25 -39t72 -23l242 -46q138 -26 138 -115q0 -41 -32 -99z" />
    <glyph glyph-name="t" unicode="t" horiz-adv-x="844" 
d="M205 701h824l-56 -96h-345l-350 -605h-131l349 605h-347z" />
    <glyph glyph-name="u" unicode="u" 
d="M909 701h132l-274 -462q-42 -68 -76.5 -114t-74 -74t-90.5 -39.5t-124 -11.5h-233q-93 0 -141 35t-48 100q0 33 13 73t40 87l243 406h132l-251 -422q-22 -35 -32 -62.5t-10 -48.5q0 -38 30.5 -54.5t82.5 -16.5h170q44 0 76.5 6t60 23t52.5 47.5t53 78.5z" />
    <glyph glyph-name="v" unicode="v" horiz-adv-x="862" 
d="M311 171l598 530h158l-798 -701h-75l5 701h116z" />
    <glyph glyph-name="w" unicode="w" horiz-adv-x="1225" 
d="M222 190l533 511h94l-57 -511l481 511h141l-667 -701h-94l58 528l-557 -528h-88l144 701h121z" />
    <glyph glyph-name="x" unicode="x" horiz-adv-x="853" 
d="M194 701h132l124 -268l407 268h182l-547 -360l158 -341h-133l-129 280l-424 -280h-180l562 371z" />
    <glyph glyph-name="y" unicode="y" horiz-adv-x="884" 
d="M409 351l506 350h162l-643 -444l-150 -257h-131l156 272l-119 429h121z" />
    <glyph glyph-name="z" unicode="z" horiz-adv-x="795" 
d="M98 97h562l-56 -97h-785l29 53l829 552h-529l56 96h749l-29 -53z" />
    <glyph glyph-name="braceleft" unicode="{" horiz-adv-x="924" 
d="M572 97l157 249q-21 -16 -52.5 -23t-82.5 -7h-304q-37 0 -63 -3.5t-44.5 -11t-31.5 -20t-24 -31.5l-15 -25q-26 -43 -26 -70q0 -58 115 -58h371zM-2 264q24 42 52.5 71t64 46t79 24.5t98.5 7.5h367q57 0 87.5 13.5t52.5 51.5q25 41 25 67q0 29 -28.5 44.5t-94.5 15.5
h-450l60 96h431q61 0 103 -9t68 -25.5t37.5 -39.5t11.5 -51q0 -35 -16.5 -76.5t-42.5 -86.5l-258 -413h-480q-59 0 -99.5 10.5t-66.5 28.5t-37.5 42t-11.5 51q0 24 8 49t22 51z" />
    <glyph glyph-name="bar" unicode="|" horiz-adv-x="636" 
d="M262 900h110v-1075h-110v1075z" />
    <glyph glyph-name="braceright" unicode="}" horiz-adv-x="1370" 
d="M368 674q32 10 73 13.5t92 3.5h123q80 0 118 -19.5t51 -52.5q28 23 55 37.5t57.5 22t67 10t83.5 2.5h121q94 0 142.5 -35.5t48.5 -98.5q0 -56 -41 -127l-249 -430h-131l252 440q31 53 31 89q0 66 -108 66h-86q-54 0 -92 -8.5t-71 -34t-66 -72t-77 -122.5l-207 -358h-131
l253 439q31 53 31 89q0 35 -27.5 51t-78.5 16h-89q-54 0 -91.5 -8.5t-70.5 -34t-66.5 -72t-77.5 -122.5l-209 -358h-131l400 701h114z" />
    <glyph glyph-name="asciitilde" unicode="~" horiz-adv-x="698" 
d="M421 260q-48 0 -79.5 16.5t-56.5 34.5q-17 12 -35 22t-37 10q-20 0 -34 -7.5t-25 -25.5l-30 -50h-113l53 87q26 44 66 61.5t94 17.5q43 0 73.5 -15.5t56.5 -33.5q19 -14 37.5 -24t38.5 -10q21 0 34 8t24 25l31 50h112l-50 -84q-26 -45 -65 -63.5t-95 -18.5z" />
    <glyph glyph-name="uni00A0" unicode="&#xa0;" horiz-adv-x="0" 
 />
    <glyph glyph-name="exclamdown" unicode="&#xa1;" horiz-adv-x="364" 
d="M212 506h127l-291 -506h-138zM379 570h-146l75 131h145z" />
    <glyph glyph-name="cent" unicode="&#xa2;" horiz-adv-x="833" 
d="M184 -118l101 160h-59q-54 0 -92 8.5t-62 24.5t-35 38.5t-11 49.5q0 38 18.5 83.5t49.5 94.5l55 87q40 64 77.5 108t81.5 71.5t99 39.5t130 12h46l100 158h112l-100 -158h188l-59 -93h-283q-55 0 -93 -6.5t-68 -24.5t-56 -50t-58 -82l-46 -72q-53 -84 -53 -131
q0 -35 29 -50t86 -15h330l-59 -93h-156l-100 -160h-113z" />
    <glyph glyph-name="sterling" unicode="&#xa3;" horiz-adv-x="927" 
d="M653 306h-278l-120 -209h483l-55 -97h-719q15 26 27 47q11 18 19.5 33t9.5 17h105l120 209h-121l53 97h124l39 68q41 71 77.5 116t79.5 70.5t98 34.5t134 9h132l-61 -96h-82q-48 0 -83.5 -6t-64.5 -22.5t-55 -46t-54 -76.5l-30 -51h277z" />
    <glyph glyph-name="currency" unicode="&#xa4;" horiz-adv-x="580" 
d="M113 102l-70 69l59 60q-11 23 -20.5 54t-9.5 61q0 33 8.5 62t25.5 55l-63 63l70 70l63 -62q24 14 54 23.5t60 9.5q31 0 60.5 -9.5t54.5 -23.5l63 62l69 -71l-62 -63q15 -26 24 -55t9 -61q0 -30 -9 -60.5t-22 -53.5l60 -61l-69 -69l-61 59q-25 -18 -55 -26.5t-62 -8.5
q-34 0 -63.5 8.5t-54.5 25.5zM201 259q16 -16 37.5 -26t49.5 -10q27 0 49.5 10t38.5 26.5t25 38.5t9 48t-8.5 48t-24.5 39t-38 27t-50 10t-50 -10t-37 -27t-23.5 -39t-8.5 -48t8 -48t23 -39z" />
    <glyph glyph-name="yen" unicode="&#xa5;" horiz-adv-x="927" 
d="M385 351l506 350h162l-572 -395h159l-55 -97h-203l-122 -209h-131l120 209h-181l53 97h154l-109 395h121z" />
    <glyph glyph-name="brokenbar" unicode="&#xa6;" horiz-adv-x="636" 
d="M262 250h110v-425h-110v425zM262 900h110v-425h-110v425z" />
    <glyph glyph-name="section" unicode="&#xa7;" horiz-adv-x="835" 
d="M105 458q0 38 27 85l19 32q21 37 46 61t57.5 38.5t74.5 20.5t98 6h494l-61 -96h-458q-30 0 -51.5 -3.5t-36.5 -12t-26.5 -21t-22.5 -30.5q-20 -32 -20 -53q0 -25 25 -39t72 -23l242 -46q138 -26 138 -115q0 -41 -32 -99l-31 -51q-20 -35 -45 -57l-2 -1q7 -17 7 -36
q0 -41 -32 -99l-31 -51q-20 -35 -45 -56.5t-58.5 -34t-77.5 -17t-104 -4.5h-506l61 97h477q32 0 56 3t42.5 11.5t32.5 23.5t26 39q20 35 20 58q0 38 -67 53l-272 53q-71 14 -105 45t-34 75q0 38 27 85l19 32q21 37 46 61q13 12 22 19q-11 21 -11 47zM537 135q14 15 26 39
q20 35 20 58q0 38 -67 53l-272 53q-17 3 -33 7q-15 -8 -26.5 -20.5t-22.5 -30.5q-20 -32 -20 -53q0 -25 25 -39t72 -23l242 -46q23 -5 42 -11q7 6 14 13z" />
    <glyph glyph-name="dieresis" unicode="&#xa8;" horiz-adv-x="480" 
d="M72 772l64 108h108l-63 -108h-109zM266 772l64 108h108l-63 -108h-109z" />
    <glyph glyph-name="copyright" unicode="&#xa9;" horiz-adv-x="977" 
d="M592 266l-48 -71h-183q-43 0 -66 17.5t-23 49.5q0 34 29 80l40 66q20 33 37.5 53t37 31.5t44 15t58.5 3.5h204l-48 -71h-160q-16 0 -28 -1.5t-22.5 -7.5t-20 -16.5t-20.5 -28.5l-28 -46q-14 -23 -17.5 -33.5t-3.5 -20.5q0 -11 9 -15.5t32 -4.5h177zM131 287
q-53 -85 -53 -129q0 -42 34 -57.5t98 -15.5h253q50 0 87 4.5t68 21t59.5 47.5t61.5 84l107 173q53 86 53 129q0 42 -34 57.5t-98 15.5h-254q-49 0 -86.5 -5.5t-69 -22.5t-60 -47.5t-59.5 -81.5zM133 471q42 69 79.5 114t80.5 71q45 27 98 36t134 9h296q188 0 188 -125
q0 -36 -15 -80.5t-47 -95.5l-103 -169q-42 -69 -79 -113.5t-80.5 -71t-99 -36.5t-133.5 -10h-296q-96 0 -142 33t-46 94q0 71 62 174z" />
    <glyph glyph-name="ordfeminine" unicode="&#xaa;" horiz-adv-x="342" 
d="M248 373l-2 24q-14 -11 -38 -22t-51 -11q-23 0 -45 7t-39 21.5t-27.5 35.5t-10.5 49q0 38 19 63t49 39.5t67 20.5t73 6q0 42 -17.5 59.5t-49.5 17.5q-48 0 -76 -39l-47 29q20 30 51.5 46.5t76.5 16.5q60 0 93 -30.5t33 -102.5v-230h-59zM243 553q-27 0 -52.5 -4t-46 -13
t-33 -23.5t-12.5 -36.5q0 -30 21 -43.5t43 -13.5q24 0 45 9.5t35 21.5v103z" />
    <glyph glyph-name="guillemotleft" unicode="&#xab;" 
d="M58 304l51 94l398 170l-73 -141l-221 -97l154 -89l-57 -94zM456 304l51 94l398 170l-73 -141l-221 -97l154 -89l-57 -94z" />
    <glyph glyph-name="logicalnot" unicode="&#xac;" horiz-adv-x="728" 
d="M497 303h-457l65 103h583l-184 -308h-131z" />
    <glyph glyph-name="uni00AD" unicode="&#xad;" horiz-adv-x="833" 
 />
    <glyph glyph-name="registered" unicode="&#xae;" horiz-adv-x="977" 
d="M618 512q42 0 63.5 -17.5t21.5 -45.5q0 -13 -5 -26t-13 -27l-15 -26q-21 -36 -42.5 -50.5t-58.5 -17.5l55 -107h-100l-53 104h-47q-26 0 -38.5 -5t-20.5 -20l-46 -79h-91l183 317h207zM461 440l-41 -74q4 1 11.5 2t18.5 1h67q30 0 42.5 4t21.5 19l10 17q8 14 8 21
q0 10 -24 10h-114zM131 287q-53 -85 -53 -129q0 -42 34 -57.5t98 -15.5h253q50 0 87 4.5t68 21t59.5 47.5t61.5 84l107 173q53 86 53 129q0 42 -34 57.5t-98 15.5h-254q-49 0 -86.5 -5.5t-69 -22.5t-60 -47.5t-59.5 -81.5zM133 471q42 69 79.5 114t80.5 71q45 27 98 36
t134 9h296q188 0 188 -125q0 -36 -15 -80.5t-47 -95.5l-103 -169q-42 -69 -79 -113.5t-80.5 -71t-99 -36.5t-133.5 -10h-296q-96 0 -142 33t-46 94q0 71 62 174z" />
    <glyph glyph-name="macron" unicode="&#xaf;" horiz-adv-x="576" 
d="M520 786h-477l44 80h479z" />
    <glyph glyph-name="degree" unicode="&#xb0;" horiz-adv-x="505" 
d="M273 593q-17 -28 -17 -45q0 -27 50 -27h95q21 0 35.5 5t25.5 14t19.5 22.5t18.5 30.5q17 28 17 44q0 14 -12 20.5t-39 6.5h-94q-21 0 -35.5 -5t-25.5 -14t-19.5 -22t-18.5 -30zM181 635q18 33 38.5 53.5t45 32t54.5 15.5t69 4h137q54 0 84.5 -20.5t30.5 -57.5
q0 -30 -20 -64l-27 -47q-19 -33 -39 -54t-45 -32.5t-55 -15.5t-69 -4h-137q-54 0 -84 20t-30 57q0 30 19 65z" />
    <glyph glyph-name="plusminus" unicode="&#xb1;" horiz-adv-x="540" 
d="M237 155v220h-201v70h201v219h70v-219h201v-70h-201v-220h-70zM31 0v67h478v-67h-478z" />
    <glyph glyph-name="twosuperior" unicode="&#xb2;" horiz-adv-x="300" 
d="M41 336v36q30 32 56 59.5t47 52.5q25 30 37 49.5t12 41.5t-12.5 33t-31.5 11q-20 0 -37 -10.5t-35 -39.5l-50 27q23 38 51 57.5t73 19.5q48 0 77 -25.5t29 -67.5q0 -34 -17.5 -63t-39.5 -55l-68 -74h133v-52h-224z" />
    <glyph glyph-name="threesuperior" unicode="&#xb3;" horiz-adv-x="300" 
d="M74 428q16 -26 34.5 -35.5t36.5 -9.5q26 0 44.5 14t18.5 37q0 24 -20 37t-55 15v45q32 2 50.5 14.5t18.5 32.5q0 19 -15.5 31t-37.5 12q-42 0 -64 -43l-49 28q20 35 51.5 51t65.5 16q21 0 41 -6t35.5 -18t25.5 -29t10 -39q0 -23 -10.5 -41t-28.5 -30q20 -11 32 -28.5
t12 -46.5q0 -26 -11 -45t-28.5 -32t-40 -19.5t-44.5 -6.5q-34 0 -66 15.5t-55 52.5z" />
    <glyph glyph-name="acute" unicode="&#xb4;" horiz-adv-x="474" 
d="M380 811l-330 -76l49 83l334 82z" />
    <glyph glyph-name="mu" unicode="&#xb5;" horiz-adv-x="574" 
d="M80 -189v666h78v-304q0 -66 30 -94t87 -28q46 0 77 18.5t44 44.5q7 14 8 33t1 36v294h78v-359q0 -34 6.5 -50t30.5 -16q16 0 27 4l12 -56q-11 -5 -26.5 -8t-25.5 -3q-34 0 -56.5 12.5t-34.5 46.5q-30 -31 -63 -45t-84 -14q-37 0 -66.5 11.5t-48.5 34.5v-224h-74z" />
    <glyph glyph-name="paragraph" unicode="&#xb6;" horiz-adv-x="506" 
d="M368 -145v812h72v-812h-72zM230 -145v421q-41 0 -76.5 15.5t-61.5 41.5t-41.5 61.5t-15.5 76.5q0 40 15.5 76t41.5 62.5t61.5 42t76.5 15.5h71v-812h-71z" />
    <glyph glyph-name="periodcentered" unicode="&#xb7;" horiz-adv-x="339" 
d="M110 391h146l-76 -131h-145z" />
    <glyph glyph-name="cedilla" unicode="&#xb8;" horiz-adv-x="394" 
d="M71 -118l128 202h112l-127 -202h-113z" />
    <glyph glyph-name="onesuperior" unicode="&#xb9;" horiz-adv-x="300" 
d="M137 337v262l-68 -39l-27 48l106 61h50v-332h-61z" />
    <glyph glyph-name="ordmasculine" unicode="&#xba;" horiz-adv-x="401" 
d="M128 384q-46 26 -69.5 72t-23.5 100q0 34 10 67.5t30.5 59.5t51.5 42t73 16t73 -16t51.5 -42.5t31 -60t10.5 -68.5t-10.5 -68t-31 -59.5t-51.5 -42.5t-73 -16q-41 0 -72 16zM124 463q13 -19 32 -30t44 -11t44 11t32 30t19.5 42.5t6.5 49.5q0 25 -6.5 49t-19.5 42.5
t-32 29.5t-44 11t-44 -11t-31.5 -29.5t-19 -42t-6.5 -48.5q0 -54 25 -93z" />
    <glyph glyph-name="guillemotright" unicode="&#xbb;" 
d="M449 417l-51 -94l-398 -170l73 141l221 97l-154 89l57 94zM847 417l-51 -94l-398 -170l73 141l221 97l-154 89l57 94z" />
    <glyph glyph-name="questiondown" unicode="&#xbf;" horiz-adv-x="799" 
d="M558 499l-42 -74q-15 -26 -32 -42.5t-36.5 -27t-41.5 -17t-46 -11.5l-132 -27q-20 -4 -35.5 -8.5t-27.5 -11.5t-22 -17t-19 -25l-25 -40q-10 -16 -15.5 -30t-5.5 -26q0 -21 19.5 -33.5t63.5 -12.5h191q74 0 112.5 18t61.5 56l24 41h130l-32 -56q-23 -41 -49.5 -70
t-62 -48t-83 -28t-112.5 -9h-231q-44 0 -76 8.5t-52.5 24t-30 36t-9.5 44.5q0 43 29 92l45 73q18 30 35.5 49.5t36 31.5t38.5 19t44 11l145 26q26 5 52 15t43 39l17 30h131zM593 570h-146l75 131h145z" />
    <glyph glyph-name="Agrave" unicode="&#xc0;" horiz-adv-x="916" 
d="M237 255q24 11 53.5 16.5t71.5 5.5h224l-4 262zM588 180h-319q-53 0 -95 -9t-80 -42l-154 -129h-149l822 701h82l20 -701h-123zM529 900l305 -94l-45 -71l-308 89z" />
    <glyph glyph-name="Aacute" unicode="&#xc1;" horiz-adv-x="916" 
d="M237 255q24 11 53.5 16.5t71.5 5.5h224l-4 262zM588 180h-319q-53 0 -95 -9t-80 -42l-154 -129h-149l822 701h82l20 -701h-123zM843 811l-330 -76l49 83l334 82z" />
    <glyph glyph-name="Acircumflex" unicode="&#xc2;" horiz-adv-x="916" 
d="M237 255q24 11 53.5 16.5t71.5 5.5h224l-4 262zM588 180h-319q-53 0 -95 -9t-80 -42l-154 -129h-149l822 701h82l20 -701h-123zM958 810l-48 -75l-215 83l-272 -83l54 91l249 74z" />
    <glyph glyph-name="Atilde" unicode="&#xc3;" horiz-adv-x="916" 
d="M237 255q24 11 53.5 16.5t71.5 5.5h224l-4 262zM588 180h-319q-53 0 -95 -9t-80 -42l-154 -129h-149l822 701h82l20 -701h-123zM769 748q-37 0 -62.5 11.5t-45.5 26t-38 26t-40 11.5q-20 0 -33 -7.5t-24 -25.5l-25 -42h-92l47 75q23 35 56 50.5t80 15.5q34 0 59.5 -11.5
t46 -26t39.5 -26t41 -11.5q20 0 32.5 7t23.5 25l26 43h92l-42 -69q-23 -38 -57 -55t-84 -17z" />
    <glyph glyph-name="Adieresis" unicode="&#xc4;" horiz-adv-x="916" 
d="M237 255q24 11 53.5 16.5t71.5 5.5h224l-4 262zM588 180h-319q-53 0 -95 -9t-80 -42l-154 -129h-149l822 701h82l20 -701h-123zM529 772l64 108h108l-63 -108h-109zM723 772l64 108h108l-63 -108h-109z" />
    <glyph glyph-name="Aring" unicode="&#xc5;" horiz-adv-x="916" 
d="M553 828q14 22 28 36t30.5 22t36.5 11t47 3h94q37 0 58 -14t21 -39q0 -19 -14 -44l-19 -30q-13 -23 -26.5 -37t-30 -21.5t-37 -10.5t-46.5 -3l20 -701h-123l-4 180h-319q-53 0 -95 -9t-80 -42l-154 -129h-149l822 701h-14q-37 0 -58.5 14t-21.5 39q0 20 15 44zM237 255
q24 11 53.5 16.5t71.5 5.5h224l-4 262zM623 802q-10 -16 -10 -27q0 -17 31 -17h59q26 0 37.5 11.5t24.5 32.5q13 22 9.5 31.5t-30.5 9.5h-59q-26 0 -37.5 -10t-24.5 -31z" />
    <glyph glyph-name="AE" unicode="&#xc6;" horiz-adv-x="1407" 
d="M366 180q-53 0 -95 -9t-80 -42l-171 -128h-155l957 700h755l-56 -96h-540l-118 -205q28 13 63 19t77 6h349l-55 -97h-312q-29 0 -58.5 -1t-56.5 -7t-49 -18.5t-36 -36.5l-98 -168h584l-56 -97h-714l103 180h-238zM363 255q24 11 53.5 16.5t71.5 5.5h172l199 344z" />
    <glyph glyph-name="Ccedilla" unicode="&#xc7;" horiz-adv-x="818" 
d="M147 -118l75 118h-106q-96 0 -146 34t-50 99q0 73 62 173l100 165q43 70 79.5 115t79 70.5t97 35t133.5 9.5h430l-61 -96h-378q-48 0 -82.5 -6t-62.5 -22.5t-53 -46t-54 -76.5l-104 -168q-25 -40 -36.5 -70t-11.5 -53q0 -35 29 -50.5t86 -15.5h407l-61 -97h-185l-74 -118
h-113z" />
    <glyph glyph-name="Egrave" unicode="&#xc8;" horiz-adv-x="805" 
d="M885 605h-540l-118 -205q28 13 63 19t77 6h349l-55 -97h-312q-29 0 -58.5 -1t-56.5 -7t-49 -18.5t-36 -36.5l-98 -168h584l-56 -97h-714l404 701h672zM514 900l305 -94l-45 -71l-308 89z" />
    <glyph glyph-name="Eacute" unicode="&#xc9;" horiz-adv-x="805" 
d="M885 605h-540l-118 -205q28 13 63 19t77 6h349l-55 -97h-312q-29 0 -58.5 -1t-56.5 -7t-49 -18.5t-36 -36.5l-98 -168h584l-56 -97h-714l404 701h672zM803 811l-330 -76l49 83l334 82z" />
    <glyph glyph-name="Ecircumflex" unicode="&#xca;" horiz-adv-x="805" 
d="M885 605h-540l-118 -205q28 13 63 19t77 6h349l-55 -97h-312q-29 0 -58.5 -1t-56.5 -7t-49 -18.5t-36 -36.5l-98 -168h584l-56 -97h-714l404 701h672zM917 810l-48 -75l-215 83l-272 -83l54 91l249 74z" />
    <glyph glyph-name="Edieresis" unicode="&#xcb;" horiz-adv-x="805" 
d="M885 605h-540l-118 -205q28 13 63 19t77 6h349l-55 -97h-312q-29 0 -58.5 -1t-56.5 -7t-49 -18.5t-36 -36.5l-98 -168h584l-56 -97h-714l404 701h672zM465 772l64 108h108l-63 -108h-109zM659 772l64 108h108l-63 -108h-109z" />
    <glyph glyph-name="Igrave" unicode="&#xcc;" horiz-adv-x="268" 
d="M-4 0h-131l404 701h131zM178 900l305 -94l-45 -71l-308 89z" />
    <glyph glyph-name="Iacute" unicode="&#xcd;" horiz-adv-x="268" 
d="M-4 0h-131l404 701h131zM571 811l-330 -76l49 83l334 82z" />
    <glyph glyph-name="Icircumflex" unicode="&#xce;" horiz-adv-x="268" 
d="M-4 0h-131l404 701h131zM649 810l-48 -75l-215 83l-272 -83l54 91l249 74z" />
    <glyph glyph-name="Idieresis" unicode="&#xcf;" horiz-adv-x="268" 
d="M-4 0h-131l404 701h131zM210 772l64 108h108l-63 -108h-109zM404 772l64 108h108l-63 -108h-109z" />
    <glyph glyph-name="Eth" unicode="&#xd0;" horiz-adv-x="974" 
d="M52 320h-83l53 97h86l164 284h435q73 0 125 -12.5t85 -35.5t48.5 -55t15.5 -71q0 -40 -15 -85.5t-44 -94.5l-59 -95q-42 -69 -85.5 -117t-103.5 -78t-143.5 -43.5t-204.5 -13.5h-458zM348 605l-109 -188h222l-55 -97h-223l-129 -223h334q60 0 110.5 8.5t94 29.5t80 56
t68.5 88l43 70q60 94 60 152q0 55 -51.5 79.5t-151.5 24.5h-293z" />
    <glyph glyph-name="Ntilde" unicode="&#xd1;" horiz-adv-x="937" 
d="M661 0h-114l-232 560l-324 -560h-126l404 701h119l227 -560l325 560h126zM768 748q-37 0 -62.5 11.5t-45.5 26t-38 26t-40 11.5q-20 0 -33 -7.5t-24 -25.5l-25 -42h-92l47 75q23 35 56 50.5t80 15.5q34 0 59.5 -11.5t46 -26t39.5 -26t41 -11.5q20 0 32.5 7t23.5 25l26 43
h92l-42 -69q-23 -38 -57 -55t-84 -17z" />
    <glyph glyph-name="Ograve" unicode="&#xd2;" horiz-adv-x="977" 
d="M151 286q-49 -79 -49 -123q0 -35 29 -50.5t86 -15.5h242q49 0 84 5.5t64 21.5t54.5 45.5t54.5 78.5l104 168q49 79 49 123q0 35 -29 50.5t-86 15.5h-243q-48 0 -83 -6t-64.5 -22.5t-55 -46t-53.5 -76.5zM127 471q44 69 81.5 114t81 70.5t98 35.5t133.5 10h289
q97 0 146.5 -33.5t49.5 -98.5q0 -72 -62 -174l-100 -164q-44 -70 -81.5 -114.5t-81 -70.5t-98.5 -36t-133 -10h-289q-97 0 -146.5 34t-49.5 99q0 73 62 173zM554 900l305 -94l-45 -71l-308 89z" />
    <glyph glyph-name="Oacute" unicode="&#xd3;" horiz-adv-x="977" 
d="M151 286q-49 -79 -49 -123q0 -35 29 -50.5t86 -15.5h242q49 0 84 5.5t64 21.5t54.5 45.5t54.5 78.5l104 168q49 79 49 123q0 35 -29 50.5t-86 15.5h-243q-48 0 -83 -6t-64.5 -22.5t-55 -46t-53.5 -76.5zM127 471q44 69 81.5 114t81 70.5t98 35.5t133.5 10h289
q97 0 146.5 -33.5t49.5 -98.5q0 -72 -62 -174l-100 -164q-44 -70 -81.5 -114.5t-81 -70.5t-98.5 -36t-133 -10h-289q-97 0 -146.5 34t-49.5 99q0 73 62 173zM863 811l-330 -76l49 83l334 82z" />
    <glyph glyph-name="Ocircumflex" unicode="&#xd4;" horiz-adv-x="977" 
d="M151 286q-49 -79 -49 -123q0 -35 29 -50.5t86 -15.5h242q49 0 84 5.5t64 21.5t54.5 45.5t54.5 78.5l104 168q49 79 49 123q0 35 -29 50.5t-86 15.5h-243q-48 0 -83 -6t-64.5 -22.5t-55 -46t-53.5 -76.5zM127 471q44 69 81.5 114t81 70.5t98 35.5t133.5 10h289
q97 0 146.5 -33.5t49.5 -98.5q0 -72 -62 -174l-100 -164q-44 -70 -81.5 -114.5t-81 -70.5t-98.5 -36t-133 -10h-289q-97 0 -146.5 34t-49.5 99q0 73 62 173zM963 810l-48 -75l-215 83l-272 -83l54 91l249 74z" />
    <glyph glyph-name="Otilde" unicode="&#xd5;" horiz-adv-x="977" 
d="M151 286q-49 -79 -49 -123q0 -35 29 -50.5t86 -15.5h242q49 0 84 5.5t64 21.5t54.5 45.5t54.5 78.5l104 168q49 79 49 123q0 35 -29 50.5t-86 15.5h-243q-48 0 -83 -6t-64.5 -22.5t-55 -46t-53.5 -76.5zM127 471q44 69 81.5 114t81 70.5t98 35.5t133.5 10h289
q97 0 146.5 -33.5t49.5 -98.5q0 -72 -62 -174l-100 -164q-44 -70 -81.5 -114.5t-81 -70.5t-98.5 -36t-133 -10h-289q-97 0 -146.5 34t-49.5 99q0 73 62 173zM789 748q-37 0 -62.5 11.5t-45.5 26t-38 26t-40 11.5q-20 0 -33 -7.5t-24 -25.5l-25 -42h-92l47 75q23 35 56 50.5
t80 15.5q34 0 59.5 -11.5t46 -26t39.5 -26t41 -11.5q20 0 32.5 7t23.5 25l26 43h92l-42 -69q-23 -38 -57 -55t-84 -17z" />
    <glyph glyph-name="Odieresis" unicode="&#xd6;" horiz-adv-x="977" 
d="M151 286q-49 -79 -49 -123q0 -35 29 -50.5t86 -15.5h242q49 0 84 5.5t64 21.5t54.5 45.5t54.5 78.5l104 168q49 79 49 123q0 35 -29 50.5t-86 15.5h-243q-48 0 -83 -6t-64.5 -22.5t-55 -46t-53.5 -76.5zM127 471q44 69 81.5 114t81 70.5t98 35.5t133.5 10h289
q97 0 146.5 -33.5t49.5 -98.5q0 -72 -62 -174l-100 -164q-44 -70 -81.5 -114.5t-81 -70.5t-98.5 -36t-133 -10h-289q-97 0 -146.5 34t-49.5 99q0 73 62 173zM525 772l64 108h108l-63 -108h-109zM719 772l64 108h108l-63 -108h-109z" />
    <glyph glyph-name="multiply" unicode="&#xd7;" horiz-adv-x="650" 
d="M181 540l119 33l65 -140l215 144l71 -73l-244 -162l81 -171l-119 -35l-67 144l-223 -148l-67 75l247 164z" />
    <glyph glyph-name="Oslash" unicode="&#xd8;" horiz-adv-x="978" 
d="M127 471q44 69 81.5 114t81 70.5t98 35.5t133.5 10h272l100 91h147l-118 -108q84 -32 84 -115q0 -70 -62 -174l-100 -164q-44 -70 -81.5 -114.5t-81 -70.5t-98.5 -36t-133 -10h-277l-99 -91h-147l119 109q-80 32 -80 115q0 70 61 173zM820 416q49 79 49 122q0 42 -44 57
l-546 -498h180q49 0 84 5.5t64 21.5t54.5 45.5t54.5 78.5zM151 286q-50 -80 -50 -123q0 -41 43 -56l544 498h-177q-48 0 -83 -6t-64.5 -22.5t-55 -46t-53.5 -76.5z" />
    <glyph glyph-name="Ugrave" unicode="&#xd9;" 
d="M909 701h132l-274 -462q-42 -68 -76.5 -114t-74 -74t-90.5 -39.5t-124 -11.5h-233q-93 0 -141 35t-48 100q0 33 13 73t40 87l243 406h132l-251 -422q-22 -35 -32 -62.5t-10 -48.5q0 -38 30.5 -54.5t82.5 -16.5h170q44 0 76.5 6t60 23t52.5 47.5t53 78.5zM526 900l305 -94
l-45 -71l-308 89z" />
    <glyph glyph-name="Uacute" unicode="&#xda;" 
d="M909 701h132l-274 -462q-42 -68 -76.5 -114t-74 -74t-90.5 -39.5t-124 -11.5h-233q-93 0 -141 35t-48 100q0 33 13 73t40 87l243 406h132l-251 -422q-22 -35 -32 -62.5t-10 -48.5q0 -38 30.5 -54.5t82.5 -16.5h170q44 0 76.5 6t60 23t52.5 47.5t53 78.5zM838 811
l-330 -76l49 83l334 82z" />
    <glyph glyph-name="Ucircumflex" unicode="&#xdb;" 
d="M909 701h132l-274 -462q-42 -68 -76.5 -114t-74 -74t-90.5 -39.5t-124 -11.5h-233q-93 0 -141 35t-48 100q0 33 13 73t40 87l243 406h132l-251 -422q-22 -35 -32 -62.5t-10 -48.5q0 -38 30.5 -54.5t82.5 -16.5h170q44 0 76.5 6t60 23t52.5 47.5t53 78.5zM960 810l-48 -75
l-215 83l-272 -83l54 91l249 74z" />
    <glyph glyph-name="Udieresis" unicode="&#xdc;" 
d="M909 701h132l-274 -462q-42 -68 -76.5 -114t-74 -74t-90.5 -39.5t-124 -11.5h-233q-93 0 -141 35t-48 100q0 33 13 73t40 87l243 406h132l-251 -422q-22 -35 -32 -62.5t-10 -48.5q0 -38 30.5 -54.5t82.5 -16.5h170q44 0 76.5 6t60 23t52.5 47.5t53 78.5zM523 772l64 108
h108l-63 -108h-109zM717 772l64 108h108l-63 -108h-109z" />
    <glyph glyph-name="Yacute" unicode="&#xdd;" horiz-adv-x="884" 
d="M409 351l506 350h162l-643 -444l-150 -257h-131l156 272l-119 429h121zM820 811l-330 -76l49 83l334 82z" />
    <glyph glyph-name="Thorn" unicode="&#xde;" horiz-adv-x="863" 
d="M344 604h343q88 0 131.5 -29t43.5 -82q0 -52 -44 -123l-61 -97q-25 -39 -52 -67t-64.5 -45.5t-89.5 -26t-128 -8.5h-234q-60 0 -96.5 -10.5t-55.5 -44.5l-41 -71h-128l404 701h128zM290 511l-184 -320q25 17 58.5 22.5t71.5 5.5h206q43 0 73 3t52.5 11.5t40 25t34.5 43.5
l57 91q24 39 24 65t-21 39.5t-60 13.5h-352z" />
    <glyph glyph-name="germandbls" unicode="&#xdf;" horiz-adv-x="1670" 
d="M659 112q-20 -35 -45 -56.5t-58.5 -34t-77.5 -17t-104 -4.5h-506l61 97h477q32 0 56 3t42.5 11.5t32.5 23.5t26 39q20 35 20 58q0 38 -67 53l-272 53q-71 14 -105 45t-34 75q0 38 27 85l19 32q21 37 46 61t57.5 38.5t74.5 20.5t98 6h494l-61 -96h-458q-30 0 -51.5 -3.5
t-36.5 -12t-26.5 -21t-22.5 -30.5q-20 -32 -20 -53q0 -25 25 -39t72 -23l242 -46q138 -26 138 -115q0 -41 -32 -99zM1494 112q-20 -35 -45 -56.5t-58.5 -34t-77.5 -17t-104 -4.5h-506l61 97h477q32 0 56 3t42.5 11.5t32.5 23.5t26 39q20 35 20 58q0 38 -67 53l-272 53
q-71 14 -105 45t-34 75q0 38 27 85l19 32q21 37 46 61t57.5 38.5t74.5 20.5t98 6h494l-61 -96h-458q-30 0 -51.5 -3.5t-36.5 -12t-26.5 -21t-22.5 -30.5q-20 -32 -20 -53q0 -25 25 -39t72 -23l242 -46q138 -26 138 -115q0 -41 -32 -99z" />
    <glyph glyph-name="agrave" unicode="&#xe0;" horiz-adv-x="916" 
d="M237 255q24 11 53.5 16.5t71.5 5.5h224l-4 262zM588 180h-319q-53 0 -95 -9t-80 -42l-154 -129h-149l822 701h82l20 -701h-123zM529 900l305 -94l-45 -71l-308 89z" />
    <glyph glyph-name="aacute" unicode="&#xe1;" horiz-adv-x="916" 
d="M237 255q24 11 53.5 16.5t71.5 5.5h224l-4 262zM588 180h-319q-53 0 -95 -9t-80 -42l-154 -129h-149l822 701h82l20 -701h-123zM843 811l-330 -76l49 83l334 82z" />
    <glyph glyph-name="acircumflex" unicode="&#xe2;" horiz-adv-x="916" 
d="M237 255q24 11 53.5 16.5t71.5 5.5h224l-4 262zM588 180h-319q-53 0 -95 -9t-80 -42l-154 -129h-149l822 701h82l20 -701h-123zM958 810l-48 -75l-215 83l-272 -83l54 91l249 74z" />
    <glyph glyph-name="atilde" unicode="&#xe3;" horiz-adv-x="916" 
d="M237 255q24 11 53.5 16.5t71.5 5.5h224l-4 262zM588 180h-319q-53 0 -95 -9t-80 -42l-154 -129h-149l822 701h82l20 -701h-123zM769 748q-37 0 -62.5 11.5t-45.5 26t-38 26t-40 11.5q-20 0 -33 -7.5t-24 -25.5l-25 -42h-92l47 75q23 35 56 50.5t80 15.5q34 0 59.5 -11.5
t46 -26t39.5 -26t41 -11.5q20 0 32.5 7t23.5 25l26 43h92l-42 -69q-23 -38 -57 -55t-84 -17z" />
    <glyph glyph-name="adieresis" unicode="&#xe4;" horiz-adv-x="916" 
d="M237 255q24 11 53.5 16.5t71.5 5.5h224l-4 262zM588 180h-319q-53 0 -95 -9t-80 -42l-154 -129h-149l822 701h82l20 -701h-123zM529 772l64 108h108l-63 -108h-109zM723 772l64 108h108l-63 -108h-109z" />
    <glyph glyph-name="aring" unicode="&#xe5;" horiz-adv-x="916" 
d="M553 828q14 22 28 36t30.5 22t36.5 11t47 3h94q37 0 58 -14t21 -39q0 -19 -14 -44l-19 -30q-13 -23 -26.5 -37t-30 -21.5t-37 -10.5t-46.5 -3l20 -701h-123l-4 180h-319q-53 0 -95 -9t-80 -42l-154 -129h-149l822 701h-14q-37 0 -58.5 14t-21.5 39q0 20 15 44zM237 255
q24 11 53.5 16.5t71.5 5.5h224l-4 262zM623 802q-10 -16 -10 -27q0 -17 31 -17h59q26 0 37.5 11.5t24.5 32.5q13 22 9.5 31.5t-30.5 9.5h-59q-26 0 -37.5 -10t-24.5 -31z" />
    <glyph glyph-name="ae" unicode="&#xe6;" horiz-adv-x="1407" 
d="M366 180q-53 0 -95 -9t-80 -42l-171 -128h-155l957 700h755l-56 -96h-540l-118 -205q28 13 63 19t77 6h349l-55 -97h-312q-29 0 -58.5 -1t-56.5 -7t-49 -18.5t-36 -36.5l-98 -168h584l-56 -97h-714l103 180h-238zM363 255q24 11 53.5 16.5t71.5 5.5h172l199 344z" />
    <glyph glyph-name="ccedilla" unicode="&#xe7;" horiz-adv-x="818" 
d="M147 -118l75 118h-106q-96 0 -146 34t-50 99q0 73 62 173l100 165q43 70 79.5 115t79 70.5t97 35t133.5 9.5h430l-61 -96h-378q-48 0 -82.5 -6t-62.5 -22.5t-53 -46t-54 -76.5l-104 -168q-25 -40 -36.5 -70t-11.5 -53q0 -35 29 -50.5t86 -15.5h407l-61 -97h-185l-74 -118
h-113z" />
    <glyph glyph-name="egrave" unicode="&#xe8;" horiz-adv-x="805" 
d="M885 605h-540l-118 -205q28 13 63 19t77 6h349l-55 -97h-312q-29 0 -58.5 -1t-56.5 -7t-49 -18.5t-36 -36.5l-98 -168h584l-56 -97h-714l404 701h672zM514 900l305 -94l-45 -71l-308 89z" />
    <glyph glyph-name="eacute" unicode="&#xe9;" horiz-adv-x="805" 
d="M885 605h-540l-118 -205q28 13 63 19t77 6h349l-55 -97h-312q-29 0 -58.5 -1t-56.5 -7t-49 -18.5t-36 -36.5l-98 -168h584l-56 -97h-714l404 701h672zM803 811l-330 -76l49 83l334 82z" />
    <glyph glyph-name="ecircumflex" unicode="&#xea;" horiz-adv-x="805" 
d="M885 605h-540l-118 -205q28 13 63 19t77 6h349l-55 -97h-312q-29 0 -58.5 -1t-56.5 -7t-49 -18.5t-36 -36.5l-98 -168h584l-56 -97h-714l404 701h672zM917 810l-48 -75l-215 83l-272 -83l54 91l249 74z" />
    <glyph glyph-name="edieresis" unicode="&#xeb;" horiz-adv-x="805" 
d="M885 605h-540l-118 -205q28 13 63 19t77 6h349l-55 -97h-312q-29 0 -58.5 -1t-56.5 -7t-49 -18.5t-36 -36.5l-98 -168h584l-56 -97h-714l404 701h672zM465 772l64 108h108l-63 -108h-109zM659 772l64 108h108l-63 -108h-109z" />
    <glyph glyph-name="igrave" unicode="&#xec;" horiz-adv-x="268" 
d="M-4 0h-131l404 701h131zM178 900l305 -94l-45 -71l-308 89z" />
    <glyph glyph-name="iacute" unicode="&#xed;" horiz-adv-x="268" 
d="M-4 0h-131l404 701h131zM571 811l-330 -76l49 83l334 82z" />
    <glyph glyph-name="icircumflex" unicode="&#xee;" horiz-adv-x="268" 
d="M-4 0h-131l404 701h131zM649 810l-48 -75l-215 83l-272 -83l54 91l249 74z" />
    <glyph glyph-name="idieresis" unicode="&#xef;" horiz-adv-x="268" 
d="M-4 0h-131l404 701h131zM210 772l64 108h108l-63 -108h-109zM404 772l64 108h108l-63 -108h-109z" />
    <glyph glyph-name="eth" unicode="&#xf0;" horiz-adv-x="974" 
d="M52 320h-83l53 97h86l164 284h435q73 0 125 -12.5t85 -35.5t48.5 -55t15.5 -71q0 -40 -15 -85.5t-44 -94.5l-59 -95q-42 -69 -85.5 -117t-103.5 -78t-143.5 -43.5t-204.5 -13.5h-458zM348 605l-109 -188h222l-55 -97h-223l-129 -223h334q60 0 110.5 8.5t94 29.5t80 56
t68.5 88l43 70q60 94 60 152q0 55 -51.5 79.5t-151.5 24.5h-293z" />
    <glyph glyph-name="ntilde" unicode="&#xf1;" horiz-adv-x="937" 
d="M661 0h-114l-232 560l-324 -560h-126l404 701h119l227 -560l325 560h126zM768 748q-37 0 -62.5 11.5t-45.5 26t-38 26t-40 11.5q-20 0 -33 -7.5t-24 -25.5l-25 -42h-92l47 75q23 35 56 50.5t80 15.5q34 0 59.5 -11.5t46 -26t39.5 -26t41 -11.5q20 0 32.5 7t23.5 25l26 43
h92l-42 -69q-23 -38 -57 -55t-84 -17z" />
    <glyph glyph-name="ograve" unicode="&#xf2;" horiz-adv-x="977" 
d="M151 286q-49 -79 -49 -123q0 -35 29 -50.5t86 -15.5h242q49 0 84 5.5t64 21.5t54.5 45.5t54.5 78.5l104 168q49 79 49 123q0 35 -29 50.5t-86 15.5h-243q-48 0 -83 -6t-64.5 -22.5t-55 -46t-53.5 -76.5zM127 471q44 69 81.5 114t81 70.5t98 35.5t133.5 10h289
q97 0 146.5 -33.5t49.5 -98.5q0 -72 -62 -174l-100 -164q-44 -70 -81.5 -114.5t-81 -70.5t-98.5 -36t-133 -10h-289q-97 0 -146.5 34t-49.5 99q0 73 62 173zM554 900l305 -94l-45 -71l-308 89z" />
    <glyph glyph-name="oacute" unicode="&#xf3;" horiz-adv-x="977" 
d="M151 286q-49 -79 -49 -123q0 -35 29 -50.5t86 -15.5h242q49 0 84 5.5t64 21.5t54.5 45.5t54.5 78.5l104 168q49 79 49 123q0 35 -29 50.5t-86 15.5h-243q-48 0 -83 -6t-64.5 -22.5t-55 -46t-53.5 -76.5zM127 471q44 69 81.5 114t81 70.5t98 35.5t133.5 10h289
q97 0 146.5 -33.5t49.5 -98.5q0 -72 -62 -174l-100 -164q-44 -70 -81.5 -114.5t-81 -70.5t-98.5 -36t-133 -10h-289q-97 0 -146.5 34t-49.5 99q0 73 62 173zM863 811l-330 -76l49 83l334 82z" />
    <glyph glyph-name="ocircumflex" unicode="&#xf4;" horiz-adv-x="977" 
d="M151 286q-49 -79 -49 -123q0 -35 29 -50.5t86 -15.5h242q49 0 84 5.5t64 21.5t54.5 45.5t54.5 78.5l104 168q49 79 49 123q0 35 -29 50.5t-86 15.5h-243q-48 0 -83 -6t-64.5 -22.5t-55 -46t-53.5 -76.5zM127 471q44 69 81.5 114t81 70.5t98 35.5t133.5 10h289
q97 0 146.5 -33.5t49.5 -98.5q0 -72 -62 -174l-100 -164q-44 -70 -81.5 -114.5t-81 -70.5t-98.5 -36t-133 -10h-289q-97 0 -146.5 34t-49.5 99q0 73 62 173zM963 810l-48 -75l-215 83l-272 -83l54 91l249 74z" />
    <glyph glyph-name="otilde" unicode="&#xf5;" horiz-adv-x="977" 
d="M151 286q-49 -79 -49 -123q0 -35 29 -50.5t86 -15.5h242q49 0 84 5.5t64 21.5t54.5 45.5t54.5 78.5l104 168q49 79 49 123q0 35 -29 50.5t-86 15.5h-243q-48 0 -83 -6t-64.5 -22.5t-55 -46t-53.5 -76.5zM127 471q44 69 81.5 114t81 70.5t98 35.5t133.5 10h289
q97 0 146.5 -33.5t49.5 -98.5q0 -72 -62 -174l-100 -164q-44 -70 -81.5 -114.5t-81 -70.5t-98.5 -36t-133 -10h-289q-97 0 -146.5 34t-49.5 99q0 73 62 173zM789 748q-37 0 -62.5 11.5t-45.5 26t-38 26t-40 11.5q-20 0 -33 -7.5t-24 -25.5l-25 -42h-92l47 75q23 35 56 50.5
t80 15.5q34 0 59.5 -11.5t46 -26t39.5 -26t41 -11.5q20 0 32.5 7t23.5 25l26 43h92l-42 -69q-23 -38 -57 -55t-84 -17z" />
    <glyph glyph-name="odieresis" unicode="&#xf6;" horiz-adv-x="977" 
d="M151 286q-49 -79 -49 -123q0 -35 29 -50.5t86 -15.5h242q49 0 84 5.5t64 21.5t54.5 45.5t54.5 78.5l104 168q49 79 49 123q0 35 -29 50.5t-86 15.5h-243q-48 0 -83 -6t-64.5 -22.5t-55 -46t-53.5 -76.5zM127 471q44 69 81.5 114t81 70.5t98 35.5t133.5 10h289
q97 0 146.5 -33.5t49.5 -98.5q0 -72 -62 -174l-100 -164q-44 -70 -81.5 -114.5t-81 -70.5t-98.5 -36t-133 -10h-289q-97 0 -146.5 34t-49.5 99q0 73 62 173zM525 772l64 108h108l-63 -108h-109zM719 772l64 108h108l-63 -108h-109z" />
    <glyph glyph-name="divide" unicode="&#xf7;" horiz-adv-x="689" 
d="M590 303h-550l57 103h552zM196 208h146l-76 -131h-145zM425 631h146l-76 -131h-145z" />
    <glyph glyph-name="oslash" unicode="&#xf8;" horiz-adv-x="978" 
d="M127 471q44 69 81.5 114t81 70.5t98 35.5t133.5 10h272l100 91h147l-118 -108q84 -32 84 -115q0 -70 -62 -174l-100 -164q-44 -70 -81.5 -114.5t-81 -70.5t-98.5 -36t-133 -10h-277l-99 -91h-147l119 109q-80 32 -80 115q0 70 61 173zM820 416q49 79 49 122q0 42 -44 57
l-546 -498h180q49 0 84 5.5t64 21.5t54.5 45.5t54.5 78.5zM151 286q-50 -80 -50 -123q0 -41 43 -56l544 498h-177q-48 0 -83 -6t-64.5 -22.5t-55 -46t-53.5 -76.5z" />
    <glyph glyph-name="ugrave" unicode="&#xf9;" 
d="M909 701h132l-274 -462q-42 -68 -76.5 -114t-74 -74t-90.5 -39.5t-124 -11.5h-233q-93 0 -141 35t-48 100q0 33 13 73t40 87l243 406h132l-251 -422q-22 -35 -32 -62.5t-10 -48.5q0 -38 30.5 -54.5t82.5 -16.5h170q44 0 76.5 6t60 23t52.5 47.5t53 78.5zM526 900l305 -94
l-45 -71l-308 89z" />
    <glyph glyph-name="uacute" unicode="&#xfa;" 
d="M909 701h132l-274 -462q-42 -68 -76.5 -114t-74 -74t-90.5 -39.5t-124 -11.5h-233q-93 0 -141 35t-48 100q0 33 13 73t40 87l243 406h132l-251 -422q-22 -35 -32 -62.5t-10 -48.5q0 -38 30.5 -54.5t82.5 -16.5h170q44 0 76.5 6t60 23t52.5 47.5t53 78.5zM838 811
l-330 -76l49 83l334 82z" />
    <glyph glyph-name="ucircumflex" unicode="&#xfb;" 
d="M909 701h132l-274 -462q-42 -68 -76.5 -114t-74 -74t-90.5 -39.5t-124 -11.5h-233q-93 0 -141 35t-48 100q0 33 13 73t40 87l243 406h132l-251 -422q-22 -35 -32 -62.5t-10 -48.5q0 -38 30.5 -54.5t82.5 -16.5h170q44 0 76.5 6t60 23t52.5 47.5t53 78.5zM960 810l-48 -75
l-215 83l-272 -83l54 91l249 74z" />
    <glyph glyph-name="udieresis" unicode="&#xfc;" 
d="M909 701h132l-274 -462q-42 -68 -76.5 -114t-74 -74t-90.5 -39.5t-124 -11.5h-233q-93 0 -141 35t-48 100q0 33 13 73t40 87l243 406h132l-251 -422q-22 -35 -32 -62.5t-10 -48.5q0 -38 30.5 -54.5t82.5 -16.5h170q44 0 76.5 6t60 23t52.5 47.5t53 78.5zM523 772l64 108
h108l-63 -108h-109zM717 772l64 108h108l-63 -108h-109z" />
    <glyph glyph-name="yacute" unicode="&#xfd;" horiz-adv-x="884" 
d="M409 351l506 350h162l-643 -444l-150 -257h-131l156 272l-119 429h121zM820 811l-330 -76l49 83l334 82z" />
    <glyph glyph-name="thorn" unicode="&#xfe;" horiz-adv-x="863" 
d="M344 604h343q88 0 131.5 -29t43.5 -82q0 -52 -44 -123l-61 -97q-25 -39 -52 -67t-64.5 -45.5t-89.5 -26t-128 -8.5h-234q-60 0 -96.5 -10.5t-55.5 -44.5l-41 -71h-128l404 701h128zM290 511l-184 -320q25 17 58.5 22.5t71.5 5.5h206q43 0 73 3t52.5 11.5t40 25t34.5 43.5
l57 91q24 39 24 65t-21 39.5t-60 13.5h-352z" />
    <glyph glyph-name="ydieresis" unicode="&#xff;" horiz-adv-x="884" 
d="M409 351l506 350h162l-643 -444l-150 -257h-131l156 272l-119 429h121zM471 772l64 108h108l-63 -108h-109zM665 772l64 108h108l-63 -108h-109z" />
    <glyph glyph-name="Amacron" unicode="&#x100;" horiz-adv-x="916" 
d="M237 255q24 11 53.5 16.5t71.5 5.5h224l-4 262zM588 180h-319q-53 0 -95 -9t-80 -42l-154 -129h-149l822 701h82l20 -701h-123zM938 786h-477l44 80h479z" />
    <glyph glyph-name="amacron" unicode="&#x101;" horiz-adv-x="916" 
d="M237 255q24 11 53.5 16.5t71.5 5.5h224l-4 262zM588 180h-319q-53 0 -95 -9t-80 -42l-154 -129h-149l822 701h82l20 -701h-123zM938 786h-477l44 80h479z" />
    <glyph glyph-name="Abreve" unicode="&#x102;" horiz-adv-x="916" 
d="M237 255q24 11 53.5 16.5t71.5 5.5h224l-4 262zM588 180h-319q-53 0 -95 -9t-80 -42l-154 -129h-149l822 701h82l20 -701h-123zM539 888h85l-19 -34q-12 -21 -5.5 -33t35.5 -12h107q29 0 42 9.5t24 27.5l25 42h87l-37 -68q-12 -23 -24.5 -37t-27.5 -21.5t-33.5 -10.5
t-42.5 -3h-171q-39 0 -61.5 14t-22.5 40q0 21 17 50z" />
    <glyph glyph-name="abreve" unicode="&#x103;" horiz-adv-x="916" 
d="M237 255q24 11 53.5 16.5t71.5 5.5h224l-4 262zM588 180h-319q-53 0 -95 -9t-80 -42l-154 -129h-149l822 701h82l20 -701h-123zM539 888h85l-19 -34q-12 -21 -5.5 -33t35.5 -12h107q29 0 42 9.5t24 27.5l25 42h87l-37 -68q-12 -23 -24.5 -37t-27.5 -21.5t-33.5 -10.5
t-42.5 -3h-171q-39 0 -61.5 14t-22.5 40q0 21 17 50z" />
    <glyph glyph-name="Aogonek" unicode="&#x104;" horiz-adv-x="916" 
d="M588 180h-319q-53 0 -94.5 -9.5t-80.5 -41.5l-154 -129h-149l822 701h82l20 -701h-29l-37 -63q-6 -11 -6 -18q0 -29 71 -29l-43 -69q-59 0 -95 17.5t-36 52.5q0 21 17 50l35 59zM237 255q24 11 53.5 16.5t71.5 5.5h224l-4 262z" />
    <glyph glyph-name="aogonek" unicode="&#x105;" horiz-adv-x="916" 
d="M588 180h-319q-53 0 -94.5 -9.5t-80.5 -41.5l-154 -129h-149l822 701h82l20 -701h-29l-37 -63q-6 -11 -6 -18q0 -29 71 -29l-43 -69q-59 0 -95 17.5t-36 52.5q0 21 17 50l35 59zM237 255q24 11 53.5 16.5t71.5 5.5h224l-4 262z" />
    <glyph glyph-name="Cacute" unicode="&#x106;" horiz-adv-x="818" 
d="M581 97l-61 -97h-403q-96 0 -146 34t-50 99q0 73 62 173l100 165q43 70 79.5 115t79 70.5t97 35t133.5 9.5h430l-61 -96h-378q-48 0 -82.5 -6t-62.5 -22.5t-53 -46t-54 -76.5l-104 -168q-25 -40 -36.5 -70t-11.5 -53q0 -35 29 -50.5t86 -15.5h407zM776 811l-330 -76
l49 83l334 82z" />
    <glyph glyph-name="cacute" unicode="&#x107;" horiz-adv-x="818" 
d="M581 97l-61 -97h-403q-96 0 -146 34t-50 99q0 73 62 173l100 165q43 70 79.5 115t79 70.5t97 35t133.5 9.5h430l-61 -96h-378q-48 0 -82.5 -6t-62.5 -22.5t-53 -46t-54 -76.5l-104 -168q-25 -40 -36.5 -70t-11.5 -53q0 -35 29 -50.5t86 -15.5h407zM776 811l-330 -76
l49 83l334 82z" />
    <glyph glyph-name="Ccircumflex" unicode="&#x108;" horiz-adv-x="818" 
d="M581 97l-61 -97h-403q-96 0 -146 34t-50 99q0 73 62 173l100 165q43 70 79.5 115t79 70.5t97 35t133.5 9.5h430l-61 -96h-378q-48 0 -82.5 -6t-62.5 -22.5t-53 -46t-54 -76.5l-104 -168q-25 -40 -36.5 -70t-11.5 -53q0 -35 29 -50.5t86 -15.5h407zM901 810l-48 -75
l-215 83l-272 -83l54 91l249 74z" />
    <glyph glyph-name="ccircumflex" unicode="&#x109;" horiz-adv-x="818" 
d="M581 97l-61 -97h-403q-96 0 -146 34t-50 99q0 73 62 173l100 165q43 70 79.5 115t79 70.5t97 35t133.5 9.5h430l-61 -96h-378q-48 0 -82.5 -6t-62.5 -22.5t-53 -46t-54 -76.5l-104 -168q-25 -40 -36.5 -70t-11.5 -53q0 -35 29 -50.5t86 -15.5h407zM901 810l-48 -75
l-215 83l-272 -83l54 91l249 74z" />
    <glyph glyph-name="Cdotaccent" unicode="&#x10a;" horiz-adv-x="818" 
d="M581 97l-61 -97h-403q-96 0 -146 34t-50 99q0 73 62 173l100 165q43 70 79.5 115t79 70.5t97 35t133.5 9.5h430l-61 -96h-378q-48 0 -82.5 -6t-62.5 -22.5t-53 -46t-54 -76.5l-104 -168q-25 -40 -36.5 -70t-11.5 -53q0 -35 29 -50.5t86 -15.5h407zM546 772l64 108h128
l-63 -108h-129z" />
    <glyph glyph-name="cdotaccent" unicode="&#x10b;" horiz-adv-x="818" 
d="M581 97l-61 -97h-403q-96 0 -146 34t-50 99q0 73 62 173l100 165q43 70 79.5 115t79 70.5t97 35t133.5 9.5h430l-61 -96h-378q-48 0 -82.5 -6t-62.5 -22.5t-53 -46t-54 -76.5l-104 -168q-25 -40 -36.5 -70t-11.5 -53q0 -35 29 -50.5t86 -15.5h407zM546 772l64 108h128
l-63 -108h-129z" />
    <glyph glyph-name="Ccaron" unicode="&#x10c;" horiz-adv-x="818" 
d="M581 97l-61 -97h-403q-96 0 -146 34t-50 99q0 73 62 173l100 165q43 70 79.5 115t79 70.5t97 35t133.5 9.5h430l-61 -96h-378q-48 0 -82.5 -6t-62.5 -22.5t-53 -46t-54 -76.5l-104 -168q-25 -40 -36.5 -70t-11.5 -53q0 -35 29 -50.5t86 -15.5h407zM385 812l41 73l220 -59
l259 61l-50 -87l-234 -57z" />
    <glyph glyph-name="ccaron" unicode="&#x10d;" horiz-adv-x="818" 
d="M581 97l-61 -97h-403q-96 0 -146 34t-50 99q0 73 62 173l100 165q43 70 79.5 115t79 70.5t97 35t133.5 9.5h430l-61 -96h-378q-48 0 -82.5 -6t-62.5 -22.5t-53 -46t-54 -76.5l-104 -168q-25 -40 -36.5 -70t-11.5 -53q0 -35 29 -50.5t86 -15.5h407zM385 812l41 73l220 -59
l259 61l-50 -87l-234 -57z" />
    <glyph glyph-name="Dcaron" unicode="&#x10e;" horiz-adv-x="971" 
d="M345 605l-294 -508h334q60 0 110.5 8.5t94 29.5t80 56t68.5 88l43 70q60 94 60 152q0 55 -51.5 79.5t-151.5 24.5h-293zM269 701h435q73 0 125 -12.5t85 -35.5t48.5 -55t15.5 -71q0 -40 -15 -85.5t-44 -94.5l-59 -95q-42 -69 -85.5 -117t-103.5 -78t-143.5 -43.5
t-204.5 -13.5h-458zM402 812l41 73l220 -59l259 61l-50 -87l-234 -57z" />
    <glyph glyph-name="dcaron" unicode="&#x10f;" horiz-adv-x="971" 
d="M345 605l-294 -508h334q60 0 110.5 8.5t94 29.5t80 56t68.5 88l43 70q60 94 60 152q0 55 -51.5 79.5t-151.5 24.5h-293zM269 701h435q73 0 125 -12.5t85 -35.5t48.5 -55t15.5 -71q0 -40 -15 -85.5t-44 -94.5l-59 -95q-42 -69 -85.5 -117t-103.5 -78t-143.5 -43.5
t-204.5 -13.5h-458zM402 812l41 73l220 -59l259 61l-50 -87l-234 -57z" />
    <glyph glyph-name="Dcroat" unicode="&#x110;" horiz-adv-x="974" 
d="M52 320h-83l53 97h86l164 284h435q73 0 125 -12.5t85 -35.5t48.5 -55t15.5 -71q0 -40 -15 -85.5t-44 -94.5l-59 -95q-42 -69 -85.5 -117t-103.5 -78t-143.5 -43.5t-204.5 -13.5h-458zM348 605l-109 -188h222l-55 -97h-223l-129 -223h334q60 0 110.5 8.5t94 29.5t80 56
t68.5 88l43 70q60 94 60 152q0 55 -51.5 79.5t-151.5 24.5h-293z" />
    <glyph glyph-name="dcroat" unicode="&#x111;" horiz-adv-x="974" 
d="M52 320h-83l53 97h86l164 284h435q73 0 125 -12.5t85 -35.5t48.5 -55t15.5 -71q0 -40 -15 -85.5t-44 -94.5l-59 -95q-42 -69 -85.5 -117t-103.5 -78t-143.5 -43.5t-204.5 -13.5h-458zM348 605l-109 -188h222l-55 -97h-223l-129 -223h334q60 0 110.5 8.5t94 29.5t80 56
t68.5 88l43 70q60 94 60 152q0 55 -51.5 79.5t-151.5 24.5h-293z" />
    <glyph glyph-name="Emacron" unicode="&#x112;" horiz-adv-x="805" 
d="M885 605h-540l-118 -205q28 13 63 19t77 6h349l-55 -97h-312q-29 0 -58.5 -1t-56.5 -7t-49 -18.5t-36 -36.5l-98 -168h584l-56 -97h-714l404 701h672zM878 786h-477l44 80h479z" />
    <glyph glyph-name="emacron" unicode="&#x113;" horiz-adv-x="805" 
d="M885 605h-540l-118 -205q28 13 63 19t77 6h349l-55 -97h-312q-29 0 -58.5 -1t-56.5 -7t-49 -18.5t-36 -36.5l-98 -168h584l-56 -97h-714l404 701h672zM878 786h-477l44 80h479z" />
    <glyph glyph-name="Ebreve" unicode="&#x114;" horiz-adv-x="805" 
d="M885 605h-540l-118 -205q28 13 63 19t77 6h349l-55 -97h-312q-29 0 -58.5 -1t-56.5 -7t-49 -18.5t-36 -36.5l-98 -168h584l-56 -97h-714l404 701h672zM495 888h85l-19 -34q-12 -21 -5.5 -33t35.5 -12h107q29 0 42 9.5t24 27.5l25 42h87l-37 -68q-12 -23 -24.5 -37
t-27.5 -21.5t-33.5 -10.5t-42.5 -3h-171q-39 0 -61.5 14t-22.5 40q0 21 17 50z" />
    <glyph glyph-name="ebreve" unicode="&#x115;" horiz-adv-x="805" 
d="M885 605h-540l-118 -205q28 13 63 19t77 6h349l-55 -97h-312q-29 0 -58.5 -1t-56.5 -7t-49 -18.5t-36 -36.5l-98 -168h584l-56 -97h-714l404 701h672zM495 888h85l-19 -34q-12 -21 -5.5 -33t35.5 -12h107q29 0 42 9.5t24 27.5l25 42h87l-37 -68q-12 -23 -24.5 -37
t-27.5 -21.5t-33.5 -10.5t-42.5 -3h-171q-39 0 -61.5 14t-22.5 40q0 21 17 50z" />
    <glyph glyph-name="Edotaccent" unicode="&#x116;" horiz-adv-x="805" 
d="M885 605h-540l-118 -205q28 13 63 19t77 6h349l-55 -97h-312q-29 0 -58.5 -1t-56.5 -7t-49 -18.5t-36 -36.5l-98 -168h584l-56 -97h-714l404 701h672zM570 772l64 108h128l-63 -108h-129z" />
    <glyph glyph-name="edotaccent" unicode="&#x117;" horiz-adv-x="805" 
d="M885 605h-540l-118 -205q28 13 63 19t77 6h349l-55 -97h-312q-29 0 -58.5 -1t-56.5 -7t-49 -18.5t-36 -36.5l-98 -168h584l-56 -97h-714l404 701h672zM570 772l64 108h128l-63 -108h-129z" />
    <glyph glyph-name="Eogonek" unicode="&#x118;" horiz-adv-x="805" 
d="M542 -63q-6 -11 -6 -18q0 -29 71 -29l-43 -69q-59 0 -95 17.5t-36 52.5q0 21 17 50l35 59h-620l404 701h672l-56 -96h-540l-118 -205q28 13 63 19t77 6h349l-55 -97h-312q-29 0 -58.5 -1t-56.5 -7t-49 -18.5t-36 -36.5l-98 -168h584z" />
    <glyph glyph-name="eogonek" unicode="&#x119;" horiz-adv-x="805" 
d="M542 -63q-6 -11 -6 -18q0 -29 71 -29l-43 -69q-59 0 -95 17.5t-36 52.5q0 21 17 50l35 59h-620l404 701h672l-56 -96h-540l-118 -205q28 13 63 19t77 6h349l-55 -97h-312q-29 0 -58.5 -1t-56.5 -7t-49 -18.5t-36 -36.5l-98 -168h584z" />
    <glyph glyph-name="Ecaron" unicode="&#x11a;" horiz-adv-x="805" 
d="M885 605h-540l-118 -205q28 13 63 19t77 6h349l-55 -97h-312q-29 0 -58.5 -1t-56.5 -7t-49 -18.5t-36 -36.5l-98 -168h584l-56 -97h-714l404 701h672zM398 812l41 73l220 -59l259 61l-50 -87l-234 -57z" />
    <glyph glyph-name="ecaron" unicode="&#x11b;" horiz-adv-x="805" 
d="M885 605h-540l-118 -205q28 13 63 19t77 6h349l-55 -97h-312q-29 0 -58.5 -1t-56.5 -7t-49 -18.5t-36 -36.5l-98 -168h584l-56 -97h-714l404 701h672zM398 812l41 73l220 -59l259 61l-50 -87l-234 -57z" />
    <glyph glyph-name="Gcircumflex" unicode="&#x11c;" horiz-adv-x="955" 
d="M161 0q-97 0 -146.5 34t-49.5 99q0 73 62 173l100 165q44 69 81 114t79 70.5t96 35.5t133 10h502l-61 -96h-450q-48 0 -82.5 -6t-62.5 -22.5t-53 -46t-54 -76.5l-104 -168q-49 -79 -49 -123q0 -35 29 -50.5t86 -15.5h232q49 0 83 5.5t61.5 21.5t52.5 45.5t55 78.5l30 48
h-305l59 96h438l-95 -161q-43 -69 -79.5 -114t-79.5 -71t-97.5 -36t-132.5 -10h-278zM983 810l-48 -75l-215 83l-272 -83l54 91l249 74z" />
    <glyph glyph-name="gcircumflex" unicode="&#x11d;" horiz-adv-x="955" 
d="M161 0q-97 0 -146.5 34t-49.5 99q0 73 62 173l100 165q44 69 81 114t79 70.5t96 35.5t133 10h502l-61 -96h-450q-48 0 -82.5 -6t-62.5 -22.5t-53 -46t-54 -76.5l-104 -168q-49 -79 -49 -123q0 -35 29 -50.5t86 -15.5h232q49 0 83 5.5t61.5 21.5t52.5 45.5t55 78.5l30 48
h-305l59 96h438l-95 -161q-43 -69 -79.5 -114t-79.5 -71t-97.5 -36t-132.5 -10h-278zM983 810l-48 -75l-215 83l-272 -83l54 91l249 74z" />
    <glyph glyph-name="Gbreve" unicode="&#x11e;" horiz-adv-x="955" 
d="M161 0q-97 0 -146.5 34t-49.5 99q0 73 62 173l100 165q44 69 81 114t79 70.5t96 35.5t133 10h502l-61 -96h-450q-48 0 -82.5 -6t-62.5 -22.5t-53 -46t-54 -76.5l-104 -168q-49 -79 -49 -123q0 -35 29 -50.5t86 -15.5h232q49 0 83 5.5t61.5 21.5t52.5 45.5t55 78.5l30 48
h-305l59 96h438l-95 -161q-43 -69 -79.5 -114t-79.5 -71t-97.5 -36t-132.5 -10h-278zM565 888h85l-19 -34q-12 -21 -5.5 -33t35.5 -12h107q29 0 42 9.5t24 27.5l25 42h87l-37 -68q-12 -23 -24.5 -37t-27.5 -21.5t-33.5 -10.5t-42.5 -3h-171q-39 0 -61.5 14t-22.5 40
q0 21 17 50z" />
    <glyph glyph-name="gbreve" unicode="&#x11f;" horiz-adv-x="955" 
d="M161 0q-97 0 -146.5 34t-49.5 99q0 73 62 173l100 165q44 69 81 114t79 70.5t96 35.5t133 10h502l-61 -96h-450q-48 0 -82.5 -6t-62.5 -22.5t-53 -46t-54 -76.5l-104 -168q-49 -79 -49 -123q0 -35 29 -50.5t86 -15.5h232q49 0 83 5.5t61.5 21.5t52.5 45.5t55 78.5l30 48
h-305l59 96h438l-95 -161q-43 -69 -79.5 -114t-79.5 -71t-97.5 -36t-132.5 -10h-278zM565 888h85l-19 -34q-12 -21 -5.5 -33t35.5 -12h107q29 0 42 9.5t24 27.5l25 42h87l-37 -68q-12 -23 -24.5 -37t-27.5 -21.5t-33.5 -10.5t-42.5 -3h-171q-39 0 -61.5 14t-22.5 40
q0 21 17 50z" />
    <glyph glyph-name="Gdotaccent" unicode="&#x120;" horiz-adv-x="955" 
d="M161 0q-97 0 -146.5 34t-49.5 99q0 73 62 173l100 165q44 69 81 114t79 70.5t96 35.5t133 10h502l-61 -96h-450q-48 0 -82.5 -6t-62.5 -22.5t-53 -46t-54 -76.5l-104 -168q-49 -79 -49 -123q0 -35 29 -50.5t86 -15.5h232q49 0 83 5.5t61.5 21.5t52.5 45.5t55 78.5l30 48
h-305l59 96h438l-95 -161q-43 -69 -79.5 -114t-79.5 -71t-97.5 -36t-132.5 -10h-278zM622 772l64 108h128l-63 -108h-129z" />
    <glyph glyph-name="gdotaccent" unicode="&#x121;" horiz-adv-x="955" 
d="M161 0q-97 0 -146.5 34t-49.5 99q0 73 62 173l100 165q44 69 81 114t79 70.5t96 35.5t133 10h502l-61 -96h-450q-48 0 -82.5 -6t-62.5 -22.5t-53 -46t-54 -76.5l-104 -168q-49 -79 -49 -123q0 -35 29 -50.5t86 -15.5h232q49 0 83 5.5t61.5 21.5t52.5 45.5t55 78.5l30 48
h-305l59 96h438l-95 -161q-43 -69 -79.5 -114t-79.5 -71t-97.5 -36t-132.5 -10h-278zM622 772l64 108h128l-63 -108h-129z" />
    <glyph glyph-name="Gcommaaccent" unicode="&#x122;" horiz-adv-x="955" 
d="M161 0q-97 0 -146.5 34t-49.5 99q0 73 62 173l100 165q44 69 81 114t79 70.5t96 35.5t133 10h502l-61 -96h-450q-48 0 -82.5 -6t-62.5 -22.5t-53 -46t-54 -76.5l-104 -168q-49 -79 -49 -123q0 -35 29 -50.5t86 -15.5h232q49 0 83 5.5t61.5 21.5t52.5 45.5t55 78.5l30 48
h-305l59 96h438l-95 -161q-43 -69 -79.5 -114t-79.5 -71t-97.5 -36t-132.5 -10h-278zM186 -152l61 109h139l-49 -86q-23 -41 -48.5 -73.5t-57.5 -70.5h-63l73 121h-55z" />
    <glyph glyph-name="gcommaaccent" unicode="&#x123;" horiz-adv-x="955" 
d="M161 0q-97 0 -146.5 34t-49.5 99q0 73 62 173l100 165q44 69 81 114t79 70.5t96 35.5t133 10h502l-61 -96h-450q-48 0 -82.5 -6t-62.5 -22.5t-53 -46t-54 -76.5l-104 -168q-49 -79 -49 -123q0 -35 29 -50.5t86 -15.5h232q49 0 83 5.5t61.5 21.5t52.5 45.5t55 78.5l30 48
h-305l59 96h438l-95 -161q-43 -69 -79.5 -114t-79.5 -71t-97.5 -36t-132.5 -10h-278zM186 -152l61 109h139l-49 -86q-23 -41 -48.5 -73.5t-57.5 -70.5h-63l73 121h-55z" />
    <glyph glyph-name="Hcircumflex" unicode="&#x124;" horiz-adv-x="908" 
d="M228 403h505l173 298h131l-405 -701h-131l177 306h-506l-176 -306h-131l404 701h131zM953 810l-48 -75l-215 83l-272 -83l54 91l249 74z" />
    <glyph glyph-name="hcircumflex" unicode="&#x125;" horiz-adv-x="908" 
d="M228 403h505l173 298h131l-405 -701h-131l177 306h-506l-176 -306h-131l404 701h131zM953 810l-48 -75l-215 83l-272 -83l54 91l249 74z" />
    <glyph glyph-name="Hbar" unicode="&#x126;" horiz-adv-x="908" 
d="M336 591h506l64 110h131l-64 -110h92l-46 -80h-92l-295 -511h-131l177 306h-506l-176 -306h-131l294 511h-91l44 80h93l64 110h131zM733 403l62 108h-505l-62 -108h505z" />
    <glyph glyph-name="hbar" unicode="&#x127;" horiz-adv-x="908" 
d="M336 591h506l64 110h131l-64 -110h92l-46 -80h-92l-295 -511h-131l177 306h-506l-176 -306h-131l294 511h-91l44 80h93l64 110h131zM733 403l62 108h-505l-62 -108h505z" />
    <glyph glyph-name="Itilde" unicode="&#x128;" horiz-adv-x="268" 
d="M-4 0h-131l404 701h131zM463 748q-37 0 -62.5 11.5t-45.5 26t-38 26t-40 11.5q-20 0 -33 -7.5t-24 -25.5l-25 -42h-92l47 75q23 35 56 50.5t80 15.5q34 0 59.5 -11.5t46 -26t39.5 -26t41 -11.5q20 0 32.5 7t23.5 25l26 43h92l-42 -69q-23 -38 -57 -55t-84 -17z" />
    <glyph glyph-name="itilde" unicode="&#x129;" horiz-adv-x="268" 
d="M-4 0h-131l404 701h131zM463 748q-37 0 -62.5 11.5t-45.5 26t-38 26t-40 11.5q-20 0 -33 -7.5t-24 -25.5l-25 -42h-92l47 75q23 35 56 50.5t80 15.5q34 0 59.5 -11.5t46 -26t39.5 -26t41 -11.5q20 0 32.5 7t23.5 25l26 43h92l-42 -69q-23 -38 -57 -55t-84 -17z" />
    <glyph glyph-name="Imacron" unicode="&#x12a;" horiz-adv-x="268" 
d="M-4 0h-131l404 701h131zM615 786h-477l44 80h479z" />
    <glyph glyph-name="imacron" unicode="&#x12b;" horiz-adv-x="268" 
d="M-4 0h-131l404 701h131zM615 786h-477l44 80h479z" />
    <glyph glyph-name="Ibreve" unicode="&#x12c;" horiz-adv-x="268" 
d="M-4 0h-131l404 701h131zM237 888h85l-19 -34q-12 -21 -5.5 -33t35.5 -12h107q29 0 42 9.5t24 27.5l25 42h87l-37 -68q-12 -23 -24.5 -37t-27.5 -21.5t-33.5 -10.5t-42.5 -3h-171q-39 0 -61.5 14t-22.5 40q0 21 17 50z" />
    <glyph glyph-name="ibreve" unicode="&#x12d;" horiz-adv-x="268" 
d="M-4 0h-131l404 701h131zM237 888h85l-19 -34q-12 -21 -5.5 -33t35.5 -12h107q29 0 42 9.5t24 27.5l25 42h87l-37 -68q-12 -23 -24.5 -37t-27.5 -21.5t-33.5 -10.5t-42.5 -3h-171q-39 0 -61.5 14t-22.5 40q0 21 17 50z" />
    <glyph glyph-name="Iogonek" unicode="&#x12e;" horiz-adv-x="268" 
d="M-77 -63q-6 -11 -6 -18q0 -29 71 -29l-43 -69q-59 0 -95 17.5t-36 52.5q0 21 17 50l438 760h131l-404 -701h-35z" />
    <glyph glyph-name="iogonek" unicode="&#x12f;" horiz-adv-x="268" 
d="M-77 -63q-6 -11 -6 -18q0 -29 71 -29l-43 -69q-59 0 -95 17.5t-36 52.5q0 21 17 50l438 760h131l-404 -701h-35z" />
    <glyph glyph-name="Idotaccent" unicode="&#x130;" horiz-adv-x="268" 
d="M-4 0h-131l404 701h131zM307 772l64 108h128l-63 -108h-129z" />
    <glyph glyph-name="dotlessi" unicode="&#x131;" horiz-adv-x="268" 
d="M-4 0h-131l404 701h131z" />
    <glyph glyph-name="IJ" unicode="&#x132;" horiz-adv-x="974" 
d="M-4 0h-131l404 701h131zM510 97q32 0 57 7t48.5 25.5t47 50.5t53.5 83l256 438h131l-260 -453q-36 -63 -65.5 -110t-66.5 -77.5t-88.5 -45.5t-132.5 -15h-161q-71 0 -110.5 33.5t-39.5 85.5q0 21 7 44.5t22 47.5l61 99h123l-56 -92q-27 -45 -27 -72q0 -49 83 -49h118z
" />
    <glyph glyph-name="ij" unicode="&#x133;" horiz-adv-x="974" 
d="M-4 0h-131l404 701h131zM510 97q32 0 57 7t48.5 25.5t47 50.5t53.5 83l256 438h131l-260 -453q-36 -63 -65.5 -110t-66.5 -77.5t-88.5 -45.5t-132.5 -15h-161q-71 0 -110.5 33.5t-39.5 85.5q0 21 7 44.5t22 47.5l61 99h123l-56 -92q-27 -45 -27 -72q0 -49 83 -49h118z
" />
    <glyph glyph-name="Jcircumflex" unicode="&#x134;" horiz-adv-x="706" 
d="M242 97q32 0 57 7t48.5 25.5t47 50.5t53.5 83l256 438h131l-260 -453q-36 -63 -65.5 -110t-66.5 -77.5t-88.5 -45.5t-132.5 -15h-161q-71 0 -110.5 33.5t-39.5 85.5q0 21 7 44.5t22 47.5l61 99h123l-56 -92q-27 -45 -27 -72q0 -49 83 -49h118zM1073 810l-48 -75l-215 83
l-272 -83l54 91l249 74z" />
    <glyph glyph-name="jcircumflex" unicode="&#x135;" horiz-adv-x="706" 
d="M242 97q32 0 57 7t48.5 25.5t47 50.5t53.5 83l256 438h131l-260 -453q-36 -63 -65.5 -110t-66.5 -77.5t-88.5 -45.5t-132.5 -15h-161q-71 0 -110.5 33.5t-39.5 85.5q0 21 7 44.5t22 47.5l61 99h123l-56 -92q-27 -45 -27 -72q0 -49 83 -49h118zM1073 810l-48 -75l-215 83
l-272 -83l54 91l249 74z" />
    <glyph glyph-name="Kcommaaccent" unicode="&#x136;" horiz-adv-x="860" 
d="M211 373l596 328h184l-568 -312l275 -389h-144l-232 333l-197 -108l-129 -225h-131l404 701h131zM97 -152l61 109h139l-49 -86q-23 -41 -48.5 -73.5t-57.5 -70.5h-63l73 121h-55z" />
    <glyph glyph-name="kcommaaccent" unicode="&#x137;" horiz-adv-x="860" 
d="M211 373l596 328h184l-568 -312l275 -389h-144l-232 333l-197 -108l-129 -225h-131l404 701h131zM97 -152l61 109h139l-49 -86q-23 -41 -48.5 -73.5t-57.5 -70.5h-63l73 121h-55z" />
    <glyph glyph-name="kgreenlandic" unicode="&#x138;" horiz-adv-x="860" 
d="M211 373l596 328h184l-568 -312l275 -389h-144l-232 333l-197 -108l-129 -225h-131l404 701h131z" />
    <glyph glyph-name="Lacute" unicode="&#x139;" horiz-adv-x="728" 
d="M51 97h541l-55 -97h-672l404 701h131zM539 811l-330 -76l49 83l334 82z" />
    <glyph glyph-name="lacute" unicode="&#x13a;" horiz-adv-x="728" 
d="M51 97h541l-55 -97h-672l404 701h131zM539 811l-330 -76l49 83l334 82z" />
    <glyph glyph-name="Lcommaaccent" unicode="&#x13b;" horiz-adv-x="728" 
d="M51 97h541l-55 -97h-672l404 701h131zM74 -152l61 109h139l-49 -86q-23 -41 -48.5 -73.5t-57.5 -70.5h-63l73 121h-55z" />
    <glyph glyph-name="lcommaaccent" unicode="&#x13c;" horiz-adv-x="728" 
d="M51 97h541l-55 -97h-672l404 701h131zM74 -152l61 109h139l-49 -86q-23 -41 -48.5 -73.5t-57.5 -70.5h-63l73 121h-55z" />
    <glyph glyph-name="Lcaron" unicode="&#x13d;" horiz-adv-x="728" 
d="M51 97h541l-55 -97h-672l404 701h131zM225 812l41 73l220 -59l259 61l-50 -87l-234 -57z" />
    <glyph glyph-name="lcaron" unicode="&#x13e;" horiz-adv-x="728" 
d="M51 97h541l-55 -97h-672l404 701h131zM225 812l41 73l220 -59l259 61l-50 -87l-234 -57z" />
    <glyph glyph-name="Ldot" unicode="&#x13f;" horiz-adv-x="728" 
d="M51 97h541l-55 -97h-672l404 701h131zM441 391h146l-76 -131h-145z" />
    <glyph glyph-name="ldot" unicode="&#x140;" horiz-adv-x="728" 
d="M51 97h541l-55 -97h-672l404 701h131zM441 391h146l-76 -131h-145z" />
    <glyph glyph-name="Lslash" unicode="&#x141;" horiz-adv-x="738" 
d="M253 427l207 88l23 -66l-288 -123l-132 -229h541l-55 -97h-672l145 253l-116 -50l-23 66l197 84l201 348h131z" />
    <glyph glyph-name="lslash" unicode="&#x142;" horiz-adv-x="738" 
d="M253 427l207 88l23 -66l-288 -123l-132 -229h541l-55 -97h-672l145 253l-116 -50l-23 66l197 84l201 348h131z" />
    <glyph glyph-name="Nacute" unicode="&#x143;" horiz-adv-x="937" 
d="M661 0h-114l-232 560l-324 -560h-126l404 701h119l227 -560l325 560h126zM835 811l-330 -76l49 83l334 82z" />
    <glyph glyph-name="nacute" unicode="&#x144;" horiz-adv-x="937" 
d="M661 0h-114l-232 560l-324 -560h-126l404 701h119l227 -560l325 560h126zM835 811l-330 -76l49 83l334 82z" />
    <glyph glyph-name="Ncommaaccent" unicode="&#x145;" horiz-adv-x="937" 
d="M661 0h-114l-232 560l-324 -560h-126l404 701h119l227 -560l325 560h126zM155 -152l61 109h139l-49 -86q-23 -41 -48.5 -73.5t-57.5 -70.5h-63l73 121h-55z" />
    <glyph glyph-name="ncommaaccent" unicode="&#x146;" horiz-adv-x="937" 
d="M661 0h-114l-232 560l-324 -560h-126l404 701h119l227 -560l325 560h126zM155 -152l61 109h139l-49 -86q-23 -41 -48.5 -73.5t-57.5 -70.5h-63l73 121h-55z" />
    <glyph glyph-name="Ncaron" unicode="&#x147;" horiz-adv-x="937" 
d="M661 0h-114l-232 560l-324 -560h-126l404 701h119l227 -560l325 560h126zM423 812l41 73l220 -59l259 61l-50 -87l-234 -57z" />
    <glyph glyph-name="ncaron" unicode="&#x148;" horiz-adv-x="937" 
d="M661 0h-114l-232 560l-324 -560h-126l404 701h119l227 -560l325 560h126zM423 812l41 73l220 -59l259 61l-50 -87l-234 -57z" />
    <glyph glyph-name="napostrophe" unicode="&#x149;" horiz-adv-x="1066" 
d="M790 0h-114l-232 560l-324 -560h-126l404 701h119l227 -560l325 560h126zM145 701h121l-159 -276h-131z" />
    <glyph glyph-name="Eng" unicode="&#x14a;" horiz-adv-x="937" 
d="M660 0q-29 -49 -57 -82.5t-61 -54t-72 -29.5t-89 -9q-32 0 -63.5 2t-55.5 6l59 94q40 -6 70 -6q56 0 85.5 16t44.5 41l20 34l-226 548l-324 -560h-126l404 701h119l227 -560l325 560h126z" />
    <glyph glyph-name="eng" unicode="&#x14b;" horiz-adv-x="937" 
d="M660 0q-29 -49 -57 -82.5t-61 -54t-72 -29.5t-89 -9q-32 0 -63.5 2t-55.5 6l59 94q40 -6 70 -6q56 0 85.5 16t44.5 41l20 34l-226 548l-324 -560h-126l404 701h119l227 -560l325 560h126z" />
    <glyph glyph-name="Omacron" unicode="&#x14c;" horiz-adv-x="977" 
d="M151 286q-49 -79 -49 -123q0 -35 29 -50.5t86 -15.5h242q49 0 84 5.5t64 21.5t54.5 45.5t54.5 78.5l104 168q49 79 49 123q0 35 -29 50.5t-86 15.5h-243q-48 0 -83 -6t-64.5 -22.5t-55 -46t-53.5 -76.5zM127 471q44 69 81.5 114t81 70.5t98 35.5t133.5 10h289
q97 0 146.5 -33.5t49.5 -98.5q0 -72 -62 -174l-100 -164q-44 -70 -81.5 -114.5t-81 -70.5t-98.5 -36t-133 -10h-289q-97 0 -146.5 34t-49.5 99q0 73 62 173zM908 786h-477l44 80h479z" />
    <glyph glyph-name="omacron" unicode="&#x14d;" horiz-adv-x="977" 
d="M151 286q-49 -79 -49 -123q0 -35 29 -50.5t86 -15.5h242q49 0 84 5.5t64 21.5t54.5 45.5t54.5 78.5l104 168q49 79 49 123q0 35 -29 50.5t-86 15.5h-243q-48 0 -83 -6t-64.5 -22.5t-55 -46t-53.5 -76.5zM127 471q44 69 81.5 114t81 70.5t98 35.5t133.5 10h289
q97 0 146.5 -33.5t49.5 -98.5q0 -72 -62 -174l-100 -164q-44 -70 -81.5 -114.5t-81 -70.5t-98.5 -36t-133 -10h-289q-97 0 -146.5 34t-49.5 99q0 73 62 173zM908 786h-477l44 80h479z" />
    <glyph glyph-name="Obreve" unicode="&#x14e;" horiz-adv-x="977" 
d="M151 286q-49 -79 -49 -123q0 -35 29 -50.5t86 -15.5h242q49 0 84 5.5t64 21.5t54.5 45.5t54.5 78.5l104 168q49 79 49 123q0 35 -29 50.5t-86 15.5h-243q-48 0 -83 -6t-64.5 -22.5t-55 -46t-53.5 -76.5zM127 471q44 69 81.5 114t81 70.5t98 35.5t133.5 10h289
q97 0 146.5 -33.5t49.5 -98.5q0 -72 -62 -174l-100 -164q-44 -70 -81.5 -114.5t-81 -70.5t-98.5 -36t-133 -10h-289q-97 0 -146.5 34t-49.5 99q0 73 62 173zM572 888h85l-19 -34q-12 -21 -5.5 -33t35.5 -12h107q29 0 42 9.5t24 27.5l25 42h87l-37 -68q-12 -23 -24.5 -37
t-27.5 -21.5t-33.5 -10.5t-42.5 -3h-171q-39 0 -61.5 14t-22.5 40q0 21 17 50z" />
    <glyph glyph-name="obreve" unicode="&#x14f;" horiz-adv-x="977" 
d="M151 286q-49 -79 -49 -123q0 -35 29 -50.5t86 -15.5h242q49 0 84 5.5t64 21.5t54.5 45.5t54.5 78.5l104 168q49 79 49 123q0 35 -29 50.5t-86 15.5h-243q-48 0 -83 -6t-64.5 -22.5t-55 -46t-53.5 -76.5zM127 471q44 69 81.5 114t81 70.5t98 35.5t133.5 10h289
q97 0 146.5 -33.5t49.5 -98.5q0 -72 -62 -174l-100 -164q-44 -70 -81.5 -114.5t-81 -70.5t-98.5 -36t-133 -10h-289q-97 0 -146.5 34t-49.5 99q0 73 62 173zM572 888h85l-19 -34q-12 -21 -5.5 -33t35.5 -12h107q29 0 42 9.5t24 27.5l25 42h87l-37 -68q-12 -23 -24.5 -37
t-27.5 -21.5t-33.5 -10.5t-42.5 -3h-171q-39 0 -61.5 14t-22.5 40q0 21 17 50z" />
    <glyph glyph-name="Ohungarumlaut" unicode="&#x150;" horiz-adv-x="977" 
d="M151 286q-49 -79 -49 -123q0 -35 29 -50.5t86 -15.5h242q49 0 84 5.5t64 21.5t54.5 45.5t54.5 78.5l104 168q49 79 49 123q0 35 -29 50.5t-86 15.5h-243q-48 0 -83 -6t-64.5 -22.5t-55 -46t-53.5 -76.5zM127 471q44 69 81.5 114t81 70.5t98 35.5t133.5 10h289
q97 0 146.5 -33.5t49.5 -98.5q0 -72 -62 -174l-100 -164q-44 -70 -81.5 -114.5t-81 -70.5t-98.5 -36t-133 -10h-289q-97 0 -146.5 34t-49.5 99q0 73 62 173zM512 744l85 143h112l-84 -143h-113zM720 744l85 143h112l-84 -143h-113z" />
    <glyph glyph-name="ohungarumlaut" unicode="&#x151;" horiz-adv-x="977" 
d="M151 286q-49 -79 -49 -123q0 -35 29 -50.5t86 -15.5h242q49 0 84 5.5t64 21.5t54.5 45.5t54.5 78.5l104 168q49 79 49 123q0 35 -29 50.5t-86 15.5h-243q-48 0 -83 -6t-64.5 -22.5t-55 -46t-53.5 -76.5zM127 471q44 69 81.5 114t81 70.5t98 35.5t133.5 10h289
q97 0 146.5 -33.5t49.5 -98.5q0 -72 -62 -174l-100 -164q-44 -70 -81.5 -114.5t-81 -70.5t-98.5 -36t-133 -10h-289q-97 0 -146.5 34t-49.5 99q0 73 62 173zM512 744l85 143h112l-84 -143h-113zM720 744l85 143h112l-84 -143h-113z" />
    <glyph glyph-name="OE" unicode="&#x152;" horiz-adv-x="1525" 
d="M1605 605h-540l-118 -205q28 13 63 19t77 6h349l-55 -97h-312q-29 0 -58.5 -1t-56.5 -7t-49 -18.5t-36 -36.5l-98 -168h584l-56 -97h-673l30 52q-41 -26 -90.5 -39t-115.5 -13h-289q-97 0 -146.5 34t-49.5 99q0 73 62 173l100 165q44 69 81.5 114t81 70.5t98 35.5
t133.5 10h289q60 0 98.5 -13.5t57.5 -39.5l31 53h664zM151 286q-49 -79 -49 -123q0 -35 29 -50.5t86 -15.5h242q49 0 86 7t68 24t57 46t53 74l13 23l111 193q22 44 22 75q0 35 -29 50.5t-86 15.5h-243q-48 0 -83 -6t-64.5 -22.5t-55 -46t-53.5 -76.5z" />
    <glyph glyph-name="oe" unicode="&#x153;" horiz-adv-x="1525" 
d="M1605 605h-540l-118 -205q28 13 63 19t77 6h349l-55 -97h-312q-29 0 -58.5 -1t-56.5 -7t-49 -18.5t-36 -36.5l-98 -168h584l-56 -97h-673l30 52q-41 -26 -90.5 -39t-115.5 -13h-289q-97 0 -146.5 34t-49.5 99q0 73 62 173l100 165q44 69 81.5 114t81 70.5t98 35.5
t133.5 10h289q60 0 98.5 -13.5t57.5 -39.5l31 53h664zM151 286q-49 -79 -49 -123q0 -35 29 -50.5t86 -15.5h242q49 0 86 7t68 24t57 46t53 74l13 23l111 193q22 44 22 75q0 35 -29 50.5t-86 15.5h-243q-48 0 -83 -6t-64.5 -22.5t-55 -46t-53.5 -76.5z" />
    <glyph glyph-name="Racute" unicode="&#x154;" horiz-adv-x="895" 
d="M736 701q88 0 130.5 -32.5t42.5 -86.5q0 -52 -38 -116l-37 -61q-24 -41 -48.5 -69t-55 -46t-71 -26.5t-97.5 -10.5l132 -253h-135l-132 253h-162q-36 0 -62 -3.5t-45.5 -13t-34.5 -25.5t-29 -41l-98 -170h-131l404 701h467zM345 605l-159 -278q24 15 56 20t69 5h216
q40 0 68.5 2.5t49.5 10.5t36.5 23t30.5 41l30 51q14 23 20.5 42t6.5 33q0 50 -79 50h-345zM770 811l-330 -76l49 83l334 82z" />
    <glyph glyph-name="racute" unicode="&#x155;" horiz-adv-x="895" 
d="M736 701q88 0 130.5 -32.5t42.5 -86.5q0 -52 -38 -116l-37 -61q-24 -41 -48.5 -69t-55 -46t-71 -26.5t-97.5 -10.5l132 -253h-135l-132 253h-162q-36 0 -62 -3.5t-45.5 -13t-34.5 -25.5t-29 -41l-98 -170h-131l404 701h467zM345 605l-159 -278q24 15 56 20t69 5h216
q40 0 68.5 2.5t49.5 10.5t36.5 23t30.5 41l30 51q14 23 20.5 42t6.5 33q0 50 -79 50h-345zM770 811l-330 -76l49 83l334 82z" />
    <glyph glyph-name="Rcommaaccent" unicode="&#x156;" horiz-adv-x="895" 
d="M736 701q88 0 130.5 -32.5t42.5 -86.5q0 -52 -38 -116l-37 -61q-24 -41 -48.5 -69t-55 -46t-71 -26.5t-97.5 -10.5l132 -253h-135l-132 253h-162q-36 0 -62 -3.5t-45.5 -13t-34.5 -25.5t-29 -41l-98 -170h-131l404 701h467zM345 605l-159 -278q24 15 56 20t69 5h216
q40 0 68.5 2.5t49.5 10.5t36.5 23t30.5 41l30 51q14 23 20.5 42t6.5 33q0 50 -79 50h-345zM124 -152l61 109h139l-49 -86q-23 -41 -48.5 -73.5t-57.5 -70.5h-63l73 121h-55z" />
    <glyph glyph-name="rcommaaccent" unicode="&#x157;" horiz-adv-x="895" 
d="M736 701q88 0 130.5 -32.5t42.5 -86.5q0 -52 -38 -116l-37 -61q-24 -41 -48.5 -69t-55 -46t-71 -26.5t-97.5 -10.5l132 -253h-135l-132 253h-162q-36 0 -62 -3.5t-45.5 -13t-34.5 -25.5t-29 -41l-98 -170h-131l404 701h467zM345 605l-159 -278q24 15 56 20t69 5h216
q40 0 68.5 2.5t49.5 10.5t36.5 23t30.5 41l30 51q14 23 20.5 42t6.5 33q0 50 -79 50h-345zM124 -152l61 109h139l-49 -86q-23 -41 -48.5 -73.5t-57.5 -70.5h-63l73 121h-55z" />
    <glyph glyph-name="Rcaron" unicode="&#x158;" horiz-adv-x="895" 
d="M736 701q88 0 130.5 -32.5t42.5 -86.5q0 -52 -38 -116l-37 -61q-24 -41 -48.5 -69t-55 -46t-71 -26.5t-97.5 -10.5l132 -253h-135l-132 253h-162q-36 0 -62 -3.5t-45.5 -13t-34.5 -25.5t-29 -41l-98 -170h-131l404 701h467zM345 605l-159 -278q24 15 56 20t69 5h216
q40 0 68.5 2.5t49.5 10.5t36.5 23t30.5 41l30 51q14 23 20.5 42t6.5 33q0 50 -79 50h-345zM359 812l41 73l220 -59l259 61l-50 -87l-234 -57z" />
    <glyph glyph-name="rcaron" unicode="&#x159;" horiz-adv-x="895" 
d="M736 701q88 0 130.5 -32.5t42.5 -86.5q0 -52 -38 -116l-37 -61q-24 -41 -48.5 -69t-55 -46t-71 -26.5t-97.5 -10.5l132 -253h-135l-132 253h-162q-36 0 -62 -3.5t-45.5 -13t-34.5 -25.5t-29 -41l-98 -170h-131l404 701h467zM345 605l-159 -278q24 15 56 20t69 5h216
q40 0 68.5 2.5t49.5 10.5t36.5 23t30.5 41l30 51q14 23 20.5 42t6.5 33q0 50 -79 50h-345zM359 812l41 73l220 -59l259 61l-50 -87l-234 -57z" />
    <glyph glyph-name="Sacute" unicode="&#x15a;" horiz-adv-x="845" 
d="M669 112q-20 -35 -45 -56.5t-58.5 -34t-77.5 -17t-104 -4.5h-506l61 97h477q32 0 56 3t42.5 11.5t32.5 23.5t26 39q20 35 20 58q0 38 -67 53l-272 53q-71 14 -105 45t-34 75q0 38 27 85l19 32q21 37 46 61t57.5 38.5t74.5 20.5t98 6h494l-61 -96h-458q-30 0 -51.5 -3.5
t-36.5 -12t-26.5 -21t-22.5 -30.5q-20 -32 -20 -53q0 -25 25 -39t72 -23l242 -46q138 -26 138 -115q0 -41 -32 -99zM781 811l-330 -76l49 83l334 82z" />
    <glyph glyph-name="sacute" unicode="&#x15b;" horiz-adv-x="845" 
d="M669 112q-20 -35 -45 -56.5t-58.5 -34t-77.5 -17t-104 -4.5h-506l61 97h477q32 0 56 3t42.5 11.5t32.5 23.5t26 39q20 35 20 58q0 38 -67 53l-272 53q-71 14 -105 45t-34 75q0 38 27 85l19 32q21 37 46 61t57.5 38.5t74.5 20.5t98 6h494l-61 -96h-458q-30 0 -51.5 -3.5
t-36.5 -12t-26.5 -21t-22.5 -30.5q-20 -32 -20 -53q0 -25 25 -39t72 -23l242 -46q138 -26 138 -115q0 -41 -32 -99zM781 811l-330 -76l49 83l334 82z" />
    <glyph glyph-name="Scircumflex" unicode="&#x15c;" horiz-adv-x="845" 
d="M669 112q-20 -35 -45 -56.5t-58.5 -34t-77.5 -17t-104 -4.5h-506l61 97h477q32 0 56 3t42.5 11.5t32.5 23.5t26 39q20 35 20 58q0 38 -67 53l-272 53q-71 14 -105 45t-34 75q0 38 27 85l19 32q21 37 46 61t57.5 38.5t74.5 20.5t98 6h494l-61 -96h-458q-30 0 -51.5 -3.5
t-36.5 -12t-26.5 -21t-22.5 -30.5q-20 -32 -20 -53q0 -25 25 -39t72 -23l242 -46q138 -26 138 -115q0 -41 -32 -99zM900 810l-48 -75l-215 83l-272 -83l54 91l249 74z" />
    <glyph glyph-name="scircumflex" unicode="&#x15d;" horiz-adv-x="845" 
d="M669 112q-20 -35 -45 -56.5t-58.5 -34t-77.5 -17t-104 -4.5h-506l61 97h477q32 0 56 3t42.5 11.5t32.5 23.5t26 39q20 35 20 58q0 38 -67 53l-272 53q-71 14 -105 45t-34 75q0 38 27 85l19 32q21 37 46 61t57.5 38.5t74.5 20.5t98 6h494l-61 -96h-458q-30 0 -51.5 -3.5
t-36.5 -12t-26.5 -21t-22.5 -30.5q-20 -32 -20 -53q0 -25 25 -39t72 -23l242 -46q138 -26 138 -115q0 -41 -32 -99zM900 810l-48 -75l-215 83l-272 -83l54 91l249 74z" />
    <glyph glyph-name="Scedilla" unicode="&#x15e;" horiz-adv-x="835" 
d="M97 -118l75 118h-304l61 97h477q32 0 56 3t42.5 11.5t32.5 23.5t26 39q20 35 20 58q0 38 -67 53l-272 53q-71 14 -105 45t-34 75q0 38 27 85l19 32q21 37 46 61t57.5 38.5t74.5 20.5t98 6h494l-61 -96h-458q-30 0 -51.5 -3.5t-36.5 -12t-26.5 -21t-22.5 -30.5
q-20 -32 -20 -53q0 -25 25 -39t72 -23l242 -46q138 -26 138 -115q0 -41 -32 -99l-31 -51q-20 -35 -45 -56.5t-58.5 -34t-77.5 -17t-104 -4.5h-90l-74 -118h-113z" />
    <glyph glyph-name="scedilla" unicode="&#x15f;" horiz-adv-x="835" 
d="M97 -118l75 118h-304l61 97h477q32 0 56 3t42.5 11.5t32.5 23.5t26 39q20 35 20 58q0 38 -67 53l-272 53q-71 14 -105 45t-34 75q0 38 27 85l19 32q21 37 46 61t57.5 38.5t74.5 20.5t98 6h494l-61 -96h-458q-30 0 -51.5 -3.5t-36.5 -12t-26.5 -21t-22.5 -30.5
q-20 -32 -20 -53q0 -25 25 -39t72 -23l242 -46q138 -26 138 -115q0 -41 -32 -99l-31 -51q-20 -35 -45 -56.5t-58.5 -34t-77.5 -17t-104 -4.5h-90l-74 -118h-113z" />
    <glyph glyph-name="Scaron" unicode="&#x160;" horiz-adv-x="845" 
d="M669 112q-20 -35 -45 -56.5t-58.5 -34t-77.5 -17t-104 -4.5h-506l61 97h477q32 0 56 3t42.5 11.5t32.5 23.5t26 39q20 35 20 58q0 38 -67 53l-272 53q-71 14 -105 45t-34 75q0 38 27 85l19 32q21 37 46 61t57.5 38.5t74.5 20.5t98 6h494l-61 -96h-458q-30 0 -51.5 -3.5
t-36.5 -12t-26.5 -21t-22.5 -30.5q-20 -32 -20 -53q0 -25 25 -39t72 -23l242 -46q138 -26 138 -115q0 -41 -32 -99zM391 812l41 73l220 -59l259 61l-50 -87l-234 -57z" />
    <glyph glyph-name="scaron" unicode="&#x161;" horiz-adv-x="845" 
d="M669 112q-20 -35 -45 -56.5t-58.5 -34t-77.5 -17t-104 -4.5h-506l61 97h477q32 0 56 3t42.5 11.5t32.5 23.5t26 39q20 35 20 58q0 38 -67 53l-272 53q-71 14 -105 45t-34 75q0 38 27 85l19 32q21 37 46 61t57.5 38.5t74.5 20.5t98 6h494l-61 -96h-458q-30 0 -51.5 -3.5
t-36.5 -12t-26.5 -21t-22.5 -30.5q-20 -32 -20 -53q0 -25 25 -39t72 -23l242 -46q138 -26 138 -115q0 -41 -32 -99zM391 812l41 73l220 -59l259 61l-50 -87l-234 -57z" />
    <glyph glyph-name="Tcommaaccent" unicode="&#x162;" horiz-adv-x="844" 
d="M205 701h824l-56 -96h-345l-350 -605h-131l349 605h-347zM67 -152l61 109h139l-49 -86q-23 -41 -48.5 -73.5t-57.5 -70.5h-63l73 121h-55z" />
    <glyph glyph-name="tcommaaccent" unicode="&#x163;" horiz-adv-x="844" 
d="M205 701h824l-56 -96h-345l-350 -605h-131l349 605h-347zM67 -152l61 109h139l-49 -86q-23 -41 -48.5 -73.5t-57.5 -70.5h-63l73 121h-55z" />
    <glyph glyph-name="Tcaron" unicode="&#x164;" horiz-adv-x="844" 
d="M205 701h824l-56 -96h-345l-350 -605h-131l349 605h-347zM381 812l41 73l220 -59l259 61l-50 -87l-234 -57z" />
    <glyph glyph-name="tcaron" unicode="&#x165;" horiz-adv-x="844" 
d="M205 701h824l-56 -96h-345l-350 -605h-131l349 605h-347zM381 812l41 73l220 -59l259 61l-50 -87l-234 -57z" />
    <glyph glyph-name="Tbar" unicode="&#x166;" horiz-adv-x="844" 
d="M205 701h824l-56 -96h-345l-109 -188h182l-55 -97h-183l-185 -320h-131l184 320h-182l53 97h185l109 188h-347z" />
    <glyph glyph-name="tbar" unicode="&#x167;" horiz-adv-x="844" 
d="M205 701h824l-56 -96h-345l-109 -188h182l-55 -97h-183l-185 -320h-131l184 320h-182l53 97h185l109 188h-347z" />
    <glyph glyph-name="Utilde" unicode="&#x168;" 
d="M909 701h132l-274 -462q-42 -68 -76.5 -114t-74 -74t-90.5 -39.5t-124 -11.5h-233q-93 0 -141 35t-48 100q0 33 13 73t40 87l243 406h132l-251 -422q-22 -35 -32 -62.5t-10 -48.5q0 -38 30.5 -54.5t82.5 -16.5h170q44 0 76.5 6t60 23t52.5 47.5t53 78.5zM753 748
q-37 0 -62.5 11.5t-45.5 26t-38 26t-40 11.5q-20 0 -33 -7.5t-24 -25.5l-25 -42h-92l47 75q23 35 56 50.5t80 15.5q34 0 59.5 -11.5t46 -26t39.5 -26t41 -11.5q20 0 32.5 7t23.5 25l26 43h92l-42 -69q-23 -38 -57 -55t-84 -17z" />
    <glyph glyph-name="utilde" unicode="&#x169;" 
d="M909 701h132l-274 -462q-42 -68 -76.5 -114t-74 -74t-90.5 -39.5t-124 -11.5h-233q-93 0 -141 35t-48 100q0 33 13 73t40 87l243 406h132l-251 -422q-22 -35 -32 -62.5t-10 -48.5q0 -38 30.5 -54.5t82.5 -16.5h170q44 0 76.5 6t60 23t52.5 47.5t53 78.5zM753 748
q-37 0 -62.5 11.5t-45.5 26t-38 26t-40 11.5q-20 0 -33 -7.5t-24 -25.5l-25 -42h-92l47 75q23 35 56 50.5t80 15.5q34 0 59.5 -11.5t46 -26t39.5 -26t41 -11.5q20 0 32.5 7t23.5 25l26 43h92l-42 -69q-23 -38 -57 -55t-84 -17z" />
    <glyph glyph-name="Umacron" unicode="&#x16a;" 
d="M909 701h132l-274 -462q-42 -68 -76.5 -114t-74 -74t-90.5 -39.5t-124 -11.5h-233q-93 0 -141 35t-48 100q0 33 13 73t40 87l243 406h132l-251 -422q-22 -35 -32 -62.5t-10 -48.5q0 -38 30.5 -54.5t82.5 -16.5h170q44 0 76.5 6t60 23t52.5 47.5t53 78.5zM934 786h-477
l44 80h479z" />
    <glyph glyph-name="umacron" unicode="&#x16b;" 
d="M909 701h132l-274 -462q-42 -68 -76.5 -114t-74 -74t-90.5 -39.5t-124 -11.5h-233q-93 0 -141 35t-48 100q0 33 13 73t40 87l243 406h132l-251 -422q-22 -35 -32 -62.5t-10 -48.5q0 -38 30.5 -54.5t82.5 -16.5h170q44 0 76.5 6t60 23t52.5 47.5t53 78.5zM934 786h-477
l44 80h479z" />
    <glyph glyph-name="Ubreve" unicode="&#x16c;" 
d="M909 701h132l-274 -462q-42 -68 -76.5 -114t-74 -74t-90.5 -39.5t-124 -11.5h-233q-93 0 -141 35t-48 100q0 33 13 73t40 87l243 406h132l-251 -422q-22 -35 -32 -62.5t-10 -48.5q0 -38 30.5 -54.5t82.5 -16.5h170q44 0 76.5 6t60 23t52.5 47.5t53 78.5zM542 888h85
l-19 -34q-12 -21 -5.5 -33t35.5 -12h107q29 0 42 9.5t24 27.5l25 42h87l-37 -68q-12 -23 -24.5 -37t-27.5 -21.5t-33.5 -10.5t-42.5 -3h-171q-39 0 -61.5 14t-22.5 40q0 21 17 50z" />
    <glyph glyph-name="ubreve" unicode="&#x16d;" 
d="M909 701h132l-274 -462q-42 -68 -76.5 -114t-74 -74t-90.5 -39.5t-124 -11.5h-233q-93 0 -141 35t-48 100q0 33 13 73t40 87l243 406h132l-251 -422q-22 -35 -32 -62.5t-10 -48.5q0 -38 30.5 -54.5t82.5 -16.5h170q44 0 76.5 6t60 23t52.5 47.5t53 78.5zM542 888h85
l-19 -34q-12 -21 -5.5 -33t35.5 -12h107q29 0 42 9.5t24 27.5l25 42h87l-37 -68q-12 -23 -24.5 -37t-27.5 -21.5t-33.5 -10.5t-42.5 -3h-171q-39 0 -61.5 14t-22.5 40q0 21 17 50z" />
    <glyph glyph-name="Uring" unicode="&#x16e;" 
d="M909 701h132l-274 -462q-42 -68 -76.5 -114t-74 -74t-90.5 -39.5t-124 -11.5h-233q-93 0 -141 35t-48 100q0 33 13 73t40 87l243 406h132l-251 -422q-22 -35 -32 -62.5t-10 -48.5q0 -38 30.5 -54.5t82.5 -16.5h170q44 0 76.5 6t60 23t52.5 47.5t53 78.5zM610 802
q-10 -16 -10 -27q0 -17 31 -17h59q26 0 37.5 11.5t24.5 32.5q13 22 9.5 31.5t-30.5 9.5h-59q-26 0 -37.5 -10t-24.5 -31zM540 828q14 22 28 36t30.5 22t36.5 11t47 3h94q37 0 58.5 -14t21.5 -39q0 -20 -15 -44l-19 -30q-14 -22 -28 -36t-30.5 -22t-36.5 -11t-47 -3h-94
q-37 0 -58.5 14t-21.5 39q0 20 15 44z" />
    <glyph glyph-name="uring" unicode="&#x16f;" 
d="M909 701h132l-274 -462q-42 -68 -76.5 -114t-74 -74t-90.5 -39.5t-124 -11.5h-233q-93 0 -141 35t-48 100q0 33 13 73t40 87l243 406h132l-251 -422q-22 -35 -32 -62.5t-10 -48.5q0 -38 30.5 -54.5t82.5 -16.5h170q44 0 76.5 6t60 23t52.5 47.5t53 78.5zM610 802
q-10 -16 -10 -27q0 -17 31 -17h59q26 0 37.5 11.5t24.5 32.5q13 22 9.5 31.5t-30.5 9.5h-59q-26 0 -37.5 -10t-24.5 -31zM540 828q14 22 28 36t30.5 22t36.5 11t47 3h94q37 0 58.5 -14t21.5 -39q0 -20 -15 -44l-19 -30q-14 -22 -28 -36t-30.5 -22t-36.5 -11t-47 -3h-94
q-37 0 -58.5 14t-21.5 39q0 20 15 44z" />
    <glyph glyph-name="Uhungarumlaut" unicode="&#x170;" 
d="M909 701h132l-274 -462q-42 -68 -76.5 -114t-74 -74t-90.5 -39.5t-124 -11.5h-233q-93 0 -141 35t-48 100q0 33 13 73t40 87l243 406h132l-251 -422q-22 -35 -32 -62.5t-10 -48.5q0 -38 30.5 -54.5t82.5 -16.5h170q44 0 76.5 6t60 23t52.5 47.5t53 78.5zM488 744l85 143
h112l-84 -143h-113zM696 744l85 143h112l-84 -143h-113z" />
    <glyph glyph-name="uhungarumlaut" unicode="&#x171;" 
d="M909 701h132l-274 -462q-42 -68 -76.5 -114t-74 -74t-90.5 -39.5t-124 -11.5h-233q-93 0 -141 35t-48 100q0 33 13 73t40 87l243 406h132l-251 -422q-22 -35 -32 -62.5t-10 -48.5q0 -38 30.5 -54.5t82.5 -16.5h170q44 0 76.5 6t60 23t52.5 47.5t53 78.5zM488 744l85 143
h112l-84 -143h-113zM696 744l85 143h112l-84 -143h-113z" />
    <glyph glyph-name="Uogonek" unicode="&#x172;" 
d="M304 -63q-6 -11 -6 -18q0 -29 71 -29l-43 -69q-59 0 -95 17.5t-36 52.5q0 21 17 50l35 59h-78q-93 0 -141 35t-48 100q0 33 12.5 73t40.5 87l243 406h132l-251 -422q-42 -71 -42 -111q0 -38 30.5 -54.5t82.5 -16.5h170q44 0 76.5 6t59.5 23.5t52 47.5t54 78l269 449h132
l-274 -462q-41 -69 -75.5 -114.5t-74.5 -73.5t-91 -39.5t-124 -11.5h-61z" />
    <glyph glyph-name="uogonek" unicode="&#x173;" 
d="M304 -63q-6 -11 -6 -18q0 -29 71 -29l-43 -69q-59 0 -95 17.5t-36 52.5q0 21 17 50l35 59h-78q-93 0 -141 35t-48 100q0 33 12.5 73t40.5 87l243 406h132l-251 -422q-42 -71 -42 -111q0 -38 30.5 -54.5t82.5 -16.5h170q44 0 76.5 6t59.5 23.5t52 47.5t54 78l269 449h132
l-274 -462q-41 -69 -75.5 -114.5t-74.5 -73.5t-91 -39.5t-124 -11.5h-61z" />
    <glyph glyph-name="Wcircumflex" unicode="&#x174;" horiz-adv-x="1225" 
d="M222 190l533 511h94l-57 -511l481 511h141l-667 -701h-94l58 528l-557 -528h-88l144 701h121zM1113 810l-48 -75l-215 83l-272 -83l54 91l249 74z" />
    <glyph glyph-name="wcircumflex" unicode="&#x175;" horiz-adv-x="1225" 
d="M222 190l533 511h94l-57 -511l481 511h141l-667 -701h-94l58 528l-557 -528h-88l144 701h121zM1113 810l-48 -75l-215 83l-272 -83l54 91l249 74z" />
    <glyph glyph-name="Ycircumflex" unicode="&#x176;" horiz-adv-x="884" 
d="M409 351l506 350h162l-643 -444l-150 -257h-131l156 272l-119 429h121zM917 810l-48 -75l-215 83l-272 -83l54 91l249 74z" />
    <glyph glyph-name="ycircumflex" unicode="&#x177;" horiz-adv-x="884" 
d="M409 351l506 350h162l-643 -444l-150 -257h-131l156 272l-119 429h121zM917 810l-48 -75l-215 83l-272 -83l54 91l249 74z" />
    <glyph glyph-name="Ydieresis" unicode="&#x178;" horiz-adv-x="884" 
d="M409 351l506 350h162l-643 -444l-150 -257h-131l156 272l-119 429h121zM471 772l64 108h108l-63 -108h-109zM665 772l64 108h108l-63 -108h-109z" />
    <glyph glyph-name="Zacute" unicode="&#x179;" horiz-adv-x="835" 
d="M118 97h562l-56 -97h-785l29 53l829 552h-529l56 96h749l-29 -53zM771 811l-330 -76l49 83l334 82z" />
    <glyph glyph-name="zacute" unicode="&#x17a;" horiz-adv-x="835" 
d="M118 97h562l-56 -97h-785l29 53l829 552h-529l56 96h749l-29 -53zM771 811l-330 -76l49 83l334 82z" />
    <glyph glyph-name="Zdotaccent" unicode="&#x17b;" horiz-adv-x="835" 
d="M118 97h562l-56 -97h-785l29 53l829 552h-529l56 96h749l-29 -53zM552 772l64 108h128l-63 -108h-129z" />
    <glyph glyph-name="zdotaccent" unicode="&#x17c;" horiz-adv-x="835" 
d="M118 97h562l-56 -97h-785l29 53l829 552h-529l56 96h749l-29 -53zM552 772l64 108h128l-63 -108h-129z" />
    <glyph glyph-name="Zcaron" unicode="&#x17d;" horiz-adv-x="835" 
d="M118 97h562l-56 -97h-785l29 53l829 552h-529l56 96h749l-29 -53zM370 812l41 73l220 -59l259 61l-50 -87l-234 -57z" />
    <glyph glyph-name="zcaron" unicode="&#x17e;" horiz-adv-x="835" 
d="M118 97h562l-56 -97h-785l29 53l829 552h-529l56 96h749l-29 -53zM370 812l41 73l220 -59l259 61l-50 -87l-234 -57z" />
    <glyph glyph-name="florin" unicode="&#x192;" horiz-adv-x="927" 
d="M681 306h-233l-139 -243q-41 -71 -77.5 -116t-79.5 -70.5t-98 -34.5t-134 -9h-79l61 96h29q48 0 83.5 5.5t65 22t55.5 46t53 77.5l130 226h-121l53 97h124l39 68q41 71 77.5 116t79.5 70.5t98 34.5t134 9h79l-61 -96h-29q-48 0 -83.5 -5.5t-65 -22t-55.5 -46t-53 -77.5
l-30 -51h232z" />
    <glyph glyph-name="Scommaaccent" unicode="&#x218;" horiz-adv-x="835" 
d="M659 112q-20 -35 -45 -56.5t-58.5 -34t-77.5 -17t-104 -4.5h-506l61 97h477q32 0 56 3t42.5 11.5t32.5 23.5t26 39q20 35 20 58q0 38 -67 53l-272 53q-71 14 -105 45t-34 75q0 38 27 85l19 32q21 37 46 61t57.5 38.5t74.5 20.5t98 6h494l-61 -96h-458q-30 0 -51.5 -3.5
t-36.5 -12t-26.5 -21t-22.5 -30.5q-20 -32 -20 -53q0 -25 25 -39t72 -23l242 -46q138 -26 138 -115q0 -41 -32 -99zM72 -152l61 109h139l-49 -86q-23 -41 -48.5 -73.5t-57.5 -70.5h-63l73 121h-55z" />
    <glyph glyph-name="scommaaccent" unicode="&#x219;" horiz-adv-x="835" 
d="M659 112q-20 -35 -45 -56.5t-58.5 -34t-77.5 -17t-104 -4.5h-506l61 97h477q32 0 56 3t42.5 11.5t32.5 23.5t26 39q20 35 20 58q0 38 -67 53l-272 53q-71 14 -105 45t-34 75q0 38 27 85l19 32q21 37 46 61t57.5 38.5t74.5 20.5t98 6h494l-61 -96h-458q-30 0 -51.5 -3.5
t-36.5 -12t-26.5 -21t-22.5 -30.5q-20 -32 -20 -53q0 -25 25 -39t72 -23l242 -46q138 -26 138 -115q0 -41 -32 -99zM72 -152l61 109h139l-49 -86q-23 -41 -48.5 -73.5t-57.5 -70.5h-63l73 121h-55z" />
    <glyph glyph-name="uni021A" unicode="&#x21a;" horiz-adv-x="844" 
d="M205 701h824l-56 -96h-345l-350 -605h-131l349 605h-347zM67 -152l61 109h139l-49 -86q-23 -41 -48.5 -73.5t-57.5 -70.5h-63l73 121h-55z" />
    <glyph glyph-name="uni021B" unicode="&#x21b;" horiz-adv-x="844" 
d="M205 701h824l-56 -96h-345l-350 -605h-131l349 605h-347zM67 -152l61 109h139l-49 -86q-23 -41 -48.5 -73.5t-57.5 -70.5h-63l73 121h-55z" />
    <glyph glyph-name="dotlessj" unicode="&#x237;" horiz-adv-x="706" 
d="M242 97q32 0 57 7t48.5 25.5t47 50.5t53.5 83l256 438h131l-260 -453q-36 -63 -65.5 -110t-66.5 -77.5t-88.5 -45.5t-132.5 -15h-161q-71 0 -110.5 33.5t-39.5 85.5q0 21 7 44.5t22 47.5l61 99h123l-56 -92q-27 -45 -27 -72q0 -49 83 -49h118z" />
    <glyph glyph-name="apostrophe" unicode="&#x2bc;" horiz-adv-x="235" 
d="M257 701h121l-159 -276h-131z" />
    <glyph glyph-name="circumflex" unicode="&#x2c6;" horiz-adv-x="665" 
d="M633 810l-48 -75l-215 83l-272 -83l54 91l249 74z" />
    <glyph glyph-name="caron" unicode="&#x2c7;" horiz-adv-x="643" 
d="M71 812l41 73l220 -59l259 61l-50 -87l-234 -57z" />
    <glyph glyph-name="uni02C9" unicode="&#x2c9;" horiz-adv-x="576" 
d="M520 786h-477l44 80h479z" />
    <glyph glyph-name="breve" unicode="&#x2d8;" horiz-adv-x="602" 
d="M142 888h85l-19 -34q-12 -21 -5.5 -33t35.5 -12h107q29 0 42 9.5t24 27.5l25 42h87l-37 -68q-12 -23 -24.5 -37t-27.5 -21.5t-33.5 -10.5t-42.5 -3h-171q-39 0 -61.5 14t-22.5 40q0 21 17 50z" />
    <glyph glyph-name="dotaccent" unicode="&#x2d9;" horiz-adv-x="336" 
d="M99 772l64 108h128l-63 -108h-129z" />
    <glyph glyph-name="ring" unicode="&#x2da;" horiz-adv-x="437" 
d="M159 802q-10 -16 -10 -27q0 -17 31 -17h59q26 0 37.5 11.5t24.5 32.5q13 22 9.5 31.5t-30.5 9.5h-59q-26 0 -37.5 -10t-24.5 -31zM89 828q14 22 28 36t30.5 22t36.5 11t47 3h94q37 0 58.5 -14t21.5 -39q0 -20 -15 -44l-19 -30q-14 -22 -28 -36t-30.5 -22t-36.5 -11
t-47 -3h-94q-37 0 -58.5 14t-21.5 39q0 20 15 44z" />
    <glyph glyph-name="ogonek" unicode="&#x2db;" horiz-adv-x="249" 
d="M136 -63q-6 -11 -6 -18q0 -29 71 -29l-43 -69q-59 0 -95 17.5t-36 52.5q0 21 17 50l45 75h94z" />
    <glyph glyph-name="tilde" unicode="&#x2dc;" horiz-adv-x="622" 
d="M408 748q-37 0 -62.5 11.5t-45.5 26t-38 26t-40 11.5q-20 0 -33 -7.5t-24 -25.5l-25 -42h-92l47 75q23 35 56 50.5t80 15.5q34 0 59.5 -11.5t46 -26t39.5 -26t41 -11.5q20 0 32.5 7t23.5 25l26 43h92l-42 -69q-23 -38 -57 -55t-84 -17z" />
    <glyph glyph-name="hungarumlaut" unicode="&#x2dd;" horiz-adv-x="473" 
d="M31 744l85 143h112l-84 -143h-113zM239 744l85 143h112l-84 -143h-113z" />
    <glyph glyph-name="pi" unicode="&#x3c0;" horiz-adv-x="664" 
d="M145 0v415h-8q-29 0 -46 -12.5t-34 -36.5l-52 36q23 36 47 50t43 19q16 4 34.5 5t37.5 1h437v-63h-103v-296q0 -34 7.5 -51t34.5 -17q10 0 19.5 2t17.5 4l12 -55q-11 -5 -29 -8.5t-32 -3.5q-51 0 -78 27t-27 85v314h-206v-415h-75z" />
    <glyph glyph-name="Wgrave" unicode="&#x1e80;" horiz-adv-x="1225" 
d="M222 190l533 511h94l-57 -511l481 511h141l-667 -701h-94l58 528l-557 -528h-88l144 701h121zM642 900l305 -94l-45 -71l-308 89z" />
    <glyph glyph-name="wgrave" unicode="&#x1e81;" horiz-adv-x="1225" 
d="M222 190l533 511h94l-57 -511l481 511h141l-667 -701h-94l58 528l-557 -528h-88l144 701h121zM642 900l305 -94l-45 -71l-308 89z" />
    <glyph glyph-name="Wacute" unicode="&#x1e82;" horiz-adv-x="1225" 
d="M222 190l533 511h94l-57 -511l481 511h141l-667 -701h-94l58 528l-557 -528h-88l144 701h121zM1017 811l-330 -76l49 83l334 82z" />
    <glyph glyph-name="wacute" unicode="&#x1e83;" horiz-adv-x="1225" 
d="M222 190l533 511h94l-57 -511l481 511h141l-667 -701h-94l58 528l-557 -528h-88l144 701h121zM1017 811l-330 -76l49 83l334 82z" />
    <glyph glyph-name="Wdieresis" unicode="&#x1e84;" horiz-adv-x="1225" 
d="M222 190l533 511h94l-57 -511l481 511h141l-667 -701h-94l58 528l-557 -528h-88l144 701h121zM679 772l64 108h108l-63 -108h-109zM873 772l64 108h108l-63 -108h-109z" />
    <glyph glyph-name="wdieresis" unicode="&#x1e85;" horiz-adv-x="1225" 
d="M222 190l533 511h94l-57 -511l481 511h141l-667 -701h-94l58 528l-557 -528h-88l144 701h121zM679 772l64 108h108l-63 -108h-109zM873 772l64 108h108l-63 -108h-109z" />
    <glyph glyph-name="Ygrave" unicode="&#x1ef2;" horiz-adv-x="884" 
d="M409 351l506 350h162l-643 -444l-150 -257h-131l156 272l-119 429h121zM472 900l305 -94l-45 -71l-308 89z" />
    <glyph glyph-name="ygrave" unicode="&#x1ef3;" horiz-adv-x="884" 
d="M409 351l506 350h162l-643 -444l-150 -257h-131l156 272l-119 429h121zM472 900l305 -94l-45 -71l-308 89z" />
    <glyph glyph-name="endash" unicode="&#x2013;" horiz-adv-x="500" 
d="M29 406h500l-65 -103h-500z" />
    <glyph glyph-name="emdash" unicode="&#x2014;" horiz-adv-x="1000" 
d="M29 406h1000l-65 -103h-1000z" />
    <glyph glyph-name="quoteleft" unicode="&#x2018;" horiz-adv-x="235" 
d="M257 701h121l-159 -276h-131z" />
    <glyph glyph-name="quoteright" unicode="&#x2019;" horiz-adv-x="235" 
d="M209 425h-121l159 276h131z" />
    <glyph glyph-name="quotesinglbase" unicode="&#x201a;" horiz-adv-x="305" 
d="M-87 -167h-121l159 276h131z" />
    <glyph glyph-name="quotedblleft" unicode="&#x201c;" horiz-adv-x="471" 
d="M465 701h121l-159 -276h-131zM229 701h121l-159 -276h-131z" />
    <glyph glyph-name="quotedblright" unicode="&#x201d;" horiz-adv-x="471" 
d="M186 425h-121l159 276h131zM422 425h-121l159 276h131z" />
    <glyph glyph-name="quotedblbase" unicode="&#x201e;" horiz-adv-x="541" 
d="M-87 -167h-121l159 276h131zM149 -167h-121l159 276h131z" />
    <glyph glyph-name="dagger" unicode="&#x2020;" horiz-adv-x="602" 
d="M145 499h172l117 202h131l-117 -202h178l-62 -97h-172l-299 -520h-131l299 520h-179z" />
    <glyph glyph-name="daggerdbl" unicode="&#x2021;" horiz-adv-x="602" 
d="M145 499h172l117 202h131l-117 -202h178l-62 -97h-172l-87 -152h177l-62 -97h-171l-156 -271h-131l156 271h-180l63 97h173l87 152h-179z" />
    <glyph glyph-name="bullet" unicode="&#x2022;" horiz-adv-x="463" 
d="M89 383q14 22 28 36t30.5 22t36.5 11t47 3h94q37 0 58 -14t21 -39q0 -19 -14 -44l-19 -30q-13 -23 -26.5 -37t-30.5 -21.5t-37.5 -10.5t-47.5 -3h-94q-37 0 -58.5 14t-21.5 39q0 20 15 44z" />
    <glyph glyph-name="ellipsis" unicode="&#x2026;" horiz-adv-x="963" 
d="M-35 131h146l-76 -131h-145zM286 131h146l-76 -131h-145zM607 131h146l-76 -131h-145z" />
    <glyph glyph-name="perthousand" unicode="&#x2030;" horiz-adv-x="1629" 
d="M478 575q18 29 18 44q0 22 -37 22h-82q-14 0 -24 -2t-18 -7t-15.5 -14t-16.5 -24l-30 -47q-18 -29 -18 -44q0 -22 37 -22h82q14 0 24 1.5t18 7t15.5 14.5t16.5 24zM543 511q-20 -32 -37 -52.5t-37.5 -32t-46.5 -16t-63 -4.5h-105q-49 0 -75 17t-26 49t25 73l40 66
q19 32 36.5 52.5t38 32t46.5 16t63 4.5h105q49 0 75 -17t26 -49t-25 -73zM253 0h-137l766 701h137zM888 169q18 29 18 44q0 22 -37 22h-82q-14 0 -24 -2t-18 -7t-15.5 -14t-16.5 -24l-30 -47q-18 -29 -18 -44q0 -22 37 -22h82q14 0 24 1.5t18 7t15.5 14.5t16.5 24zM953 105
q-20 -32 -37 -52.5t-37.5 -32t-46.5 -16t-63 -4.5h-105q-49 0 -75 17t-26 49t25 73l40 66q19 32 36.5 52.5t38 32t46.5 16t63 4.5h105q49 0 75 -17t26 -49t-25 -73zM1348 169q18 29 18 44q0 22 -37 22h-82q-14 0 -24 -2t-18 -7t-15.5 -14t-16.5 -24l-30 -47q-18 -29 -18 -44
q0 -22 37 -22h82q14 0 24 1.5t18 7t15.5 14.5t16.5 24zM1413 105q-20 -32 -37 -52.5t-37.5 -32t-46.5 -16t-63 -4.5h-105q-49 0 -75 17t-26 49t25 73l40 66q19 32 36.5 52.5t38 32t46.5 16t63 4.5h105q49 0 75 -17t26 -49t-25 -73z" />
    <glyph glyph-name="guilsinglleft" unicode="&#x2039;" horiz-adv-x="507" 
d="M58 304l51 94l398 170l-73 -141l-221 -97l154 -89l-57 -94z" />
    <glyph glyph-name="guilsinglright" unicode="&#x203a;" horiz-adv-x="507" 
d="M449 417l-51 -94l-398 -170l73 141l221 97l-154 89l57 94z" />
    <glyph glyph-name="fraction" unicode="&#x2044;" horiz-adv-x="575" 
d="M-22 0h-147l766 701h147z" />
    <glyph glyph-name="Euro" unicode="&#x20ac;" horiz-adv-x="927" 
d="M696 403h-328l-54 -87h329l-55 -97h-327q-13 -32 -13 -56q0 -35 29 -50.5t86 -15.5h343l-61 -97h-339q-97 0 -146.5 34t-49.5 99q0 38 18 86h-119l53 97h116l53 87h-114l53 97h120q40 60 75 99t76 61.5t93 31.5t127 9h344l-61 -96h-292q-41 0 -72.5 -4.5t-57 -16
t-47.5 -32t-45 -52.5h321z" />
    <glyph glyph-name="afii61289" unicode="&#x2113;" horiz-adv-x="460" 
d="M15 176l84 53v181q0 83 8.5 129t27 78t45 46t66.5 14q32 0 56 -8.5t40.5 -28t26 -49t9.5 -88.5q0 -73 -40 -152.5t-143 -169.5q0 -14 2.5 -29.5t8.5 -30.5t17 -24t28 -9q18 0 36 12.5t34 28.5q19 18 37 41l60 -61q-25 -33 -54 -59q-26 -23 -59 -40.5t-70 -17.5
q-28 0 -51 9.5t-39 27t-27.5 41t-15.5 55.5l-48 -30zM195 296q42 47 63.5 106.5t21.5 99.5q0 44 -9.5 61t-28.5 17q-17 0 -25.5 -11t-13 -32.5t-6.5 -51.5t-2 -72v-117z" />
    <glyph glyph-name="trademark" unicode="&#x2122;" horiz-adv-x="1190" 
d="M175 701h462l-40 -70h-180l-188 -325h-102l188 325h-181zM732 589l-162 -283h-102l227 395h110l29 -298l335 298h149l-227 -395h-102l165 288l-323 -288h-73z" />
    <glyph glyph-name="Omega" unicode="&#x2126;" horiz-adv-x="692" 
d="M51 0v69h137q-24 20 -48.5 46.5t-44.5 61t-32.5 77.5t-12.5 96q0 69 20.5 129t59 104.5t93.5 70.5t123 26q67 0 121 -24t91.5 -66t57.5 -100t20 -127q0 -54 -12 -99t-31.5 -81.5t-44.5 -64.5t-50 -49h139v-69h-231v69q29 19 55.5 48t47 65.5t32.5 80t12 91.5
q0 58 -14 105t-40.5 80.5t-65 51.5t-87.5 18t-88 -19t-66.5 -53.5t-42.5 -82.5t-15 -106q0 -48 13.5 -90t35 -77.5t48.5 -63.5t54 -48v-69h-234z" />
    <glyph glyph-name="estimated" unicode="&#x212e;" horiz-adv-x="600" 
d="M217 78q59 -59 145 -59q124 0 193 120l35 -21q-25 -37 -50 -62.5t-52.5 -41.5t-58.5 -23.5t-67 -7.5q-58 0 -105.5 20.5t-81.5 57.5t-52.5 87.5t-18.5 110.5t19 111t53 87.5t81.5 57t104.5 20.5q58 0 104.5 -19.5t80 -55.5t52.5 -87t22 -114h-404v-181zM217 295h291v145
q-63 60 -147 60t-144 -60v-145z" />
    <glyph glyph-name="onequarter" unicode="&#xbc;" horiz-adv-x="740" 
d="M64 -16l-38 44l638 642l44 -46zM137 337v262l-68 -39l-27 48l106 61h50v-332h-61zM437 88v47l161 194h48v-197h41v-44h-41v-87h-61v87h-148zM496 132h89v111z" />
    <glyph glyph-name="onehalf" unicode="&#xbd;" horiz-adv-x="740" 
d="M50 -16l-38 44l638 642l44 -46zM127 337v262l-68 -39l-27 48l106 61h50v-332h-61zM449 0v36q30 32 56 59.5t47 52.5q25 30 37 49.5t12 41.5t-12.5 33t-31.5 11q-20 0 -37 -10.5t-35 -39.5l-50 27q23 38 51 57.5t73 19.5q48 0 77 -25.5t29 -67.5q0 -34 -17.5 -63
t-39.5 -55l-68 -74h133v-52h-224z" />
    <glyph glyph-name="threequarters" unicode="&#xbe;" horiz-adv-x="740" 
d="M75 -16l-38 44l638 642l44 -46zM74 428q16 -26 34.5 -35.5t36.5 -9.5q26 0 44.5 14t18.5 37q0 24 -20 37t-55 15v45q32 2 50.5 14.5t18.5 32.5q0 19 -15.5 31t-37.5 12q-42 0 -64 -43l-49 28q20 35 51.5 51t65.5 16q21 0 41 -6t35.5 -18t25.5 -29t10 -39q0 -23 -10.5 -41
t-28.5 -30q20 -11 32 -28.5t12 -46.5q0 -26 -11 -45t-28.5 -32t-40 -19.5t-44.5 -6.5q-34 0 -66 15.5t-55 52.5zM443 88v47l161 194h48v-197h41v-44h-41v-87h-61v87h-148zM502 132h89v111z" />
    <glyph glyph-name="partialdiff" unicode="&#x2202;" horiz-adv-x="537" 
d="M137 673q66 -6 127 -32.5t109 -71.5q54 -51 86 -126t32 -166q0 -72 -18 -126t-49 -90t-72.5 -54t-89.5 -18q-47 0 -87 17t-68.5 49t-44.5 79t-16 107q0 58 16 104t44.5 78t69 49t90.5 17q39 0 64.5 -7.5t45.5 -17.5q-15 30 -41.5 55.5t-60.5 45t-73 32.5t-79 19zM408 344
l-7 28t-6 21q-28 17 -58 26t-69 9q-66 0 -105.5 -48t-39.5 -139q0 -94 38 -142t101 -48q30 0 57.5 13.5t48.5 41t34 70t13 100.5q0 40 -7 68z" />
    <glyph glyph-name="Delta" unicode="&#x2206;" horiz-adv-x="608" 
d="M10 0l260 667h58l270 -667h-588zM118 65h368l-189 482z" />
    <glyph glyph-name="product" unicode="&#x220f;" horiz-adv-x="645" 
d="M100 -125v723h-80v69h605v-69h-80v-723h-79v723h-286v-723h-80z" />
    <glyph glyph-name="summation" unicode="&#x2211;" horiz-adv-x="498" 
d="M40 -125v70l253 336l-253 315v71h434v-69h-340l253 -317l-253 -337h342v-69h-436z" />
    <glyph glyph-name="minus" unicode="&#x2212;" horiz-adv-x="728" 
d="M105 406h583l-64 -103h-584z" />
    <glyph glyph-name="radical" unicode="&#x221a;" horiz-adv-x="522" 
d="M538 677l-230 -677h-92l-152 338h100l94 -227l176 566h104z" />
    <glyph glyph-name="infinity" unicode="&#x221e;" horiz-adv-x="676" 
d="M334 270q-12 -19 -26 -36t-31 -30.5t-37.5 -21.5t-46.5 -8q-33 0 -59 14t-45 38.5t-29 58.5t-10 74q0 37 10 70.5t29.5 59t48 40.5t65.5 15q45 0 79.5 -28.5t57.5 -70.5q11 19 24 36.5t29.5 31t37.5 22t47 8.5q34 0 61.5 -13.5t47 -38t29.5 -58.5t10 -74q0 -35 -10 -68.5
t-29.5 -59.5t-47.5 -41.5t-64 -15.5q-50 0 -84 27t-57 69zM379 359q7 -17 16.5 -34.5t20.5 -31.5t23 -23t24 -9q17 0 29.5 8t20.5 21t11.5 29.5t3.5 33.5q0 51 -17.5 78t-43.5 27t-48.5 -27t-39.5 -72zM296 360q-22 54 -45 75.5t-44 21.5q-23 0 -40.5 -20.5t-17.5 -74.5
q0 -14 2.5 -31.5t9.5 -33t18 -26t29 -10.5q14 0 26.5 8.5t24 23t21 32t16.5 35.5z" />
    <glyph glyph-name="integral" unicode="&#x222b;" horiz-adv-x="367" 
d="M11 -126q64 2 98 29.5t34 101.5v474q0 104 53.5 148t160.5 45v-67q-30 0 -54.5 -6t-42 -21t-26.5 -40t-9 -63v-473q0 -104 -53.5 -149.5t-160.5 -45.5v67z" />
    <glyph glyph-name="approxequal" unicode="&#x2248;" horiz-adv-x="540" 
d="M33 424q22 14 55.5 26t66.5 12q30 0 59.5 -5.5t64.5 -14.5q29 -8 53.5 -12.5t48.5 -4.5q28 0 50 8t44 21l32 -57q-20 -14 -53.5 -27t-70.5 -13q-26 0 -55 5t-57 13q-34 9 -60.5 14t-52.5 5q-27 0 -50 -8t-44 -19zM33 201q22 14 55.5 26t66.5 12q30 0 59.5 -5.5
t64.5 -14.5q29 -8 53.5 -12.5t48.5 -4.5q28 0 50 8t44 21l32 -57q-20 -14 -53.5 -27t-70.5 -13q-26 0 -55 5t-57 13q-34 9 -60.5 14t-52.5 5q-27 0 -50 -8.5t-44 -19.5z" />
    <glyph glyph-name="notequal" unicode="&#x2260;" horiz-adv-x="721" 
d="M548 200h-296l-125 -114h-147l125 114h-105l57 103h160l113 103h-218l57 103h274l125 114h147l-125 -114h131l-59 -103h-185l-113 -103h243z" />
    <glyph glyph-name="lessequal" unicode="&#x2264;" horiz-adv-x="540" 
d="M31 0v67h478v-67h-478zM54 304v58l411 158l26 -69l-310 -116l323 -125l-28 -72z" />
    <glyph glyph-name="greaterequal" unicode="&#x2265;" horiz-adv-x="540" 
d="M31 0v67h478v-67h-478zM64 138l-28 72l323 125l-310 116l26 69l411 -158v-58z" />
    <glyph glyph-name="lozenge" unicode="&#x25ca;" horiz-adv-x="522" 
d="M302 677l154 -339l-154 -338h-83l-153 338l153 339h83zM261 122l97 216l-97 217l-97 -217z" />
    <glyph glyph-name="fi" unicode="&#xfb01;" horiz-adv-x="1049" 
d="M879 605h-534l-136 -235q28 13 66 19t75 6h363l-56 -97h-327q-27 0 -56.5 -0.5t-56.5 -6.5t-49 -19t-35 -37l-137 -235h-131l404 701h666zM777 0h-131l404 701h131z" />
    <glyph glyph-name="fl" unicode="&#xfb02;" horiz-adv-x="1509" 
d="M879 605h-534l-136 -235q28 13 66 19t75 6h363l-56 -97h-327q-27 0 -56.5 -0.5t-56.5 -6.5t-49 -19t-35 -37l-137 -235h-131l404 701h666zM832 97h541l-55 -97h-672l404 701h131z" />
    <glyph glyph-name="commaaccent" horiz-adv-x="400" 
d="M-133 -152l61 109h139l-49 -86q-23 -41 -48.5 -73.5t-57.5 -70.5h-63l73 121h-55z" />
    <glyph glyph-name="braceleft.alt" unicode="&#xe000;" horiz-adv-x="492" 
d="M96 434h40q31 0 52.5 6.5t38 18.5t29.5 29t26 38l40 67q41 69 75.5 112.5t71 68t78.5 33.5t99 9h105l-55 -96h-61q-32 0 -55 -6.5t-44 -25t-44 -51t-54 -84.5l-39 -65q-35 -58 -75 -89.5t-96 -44.5q23 -29 23 -72q0 -48 -28 -98l-47 -88q-16 -32 -16 -52q0 -29 25.5 -46
t77.5 -17h33l-55 -96h-53q-42 0 -72.5 10.5t-50 28.5t-29 41.5t-9.5 50.5q0 47 24 92l55 104q19 35 19 64t-18.5 44.5t-53.5 15.5h-14l15 25z" />
    <glyph glyph-name="braceright.alt" unicode="&#xe001;" horiz-adv-x="492" 
d="M393 267h-40q-31 0 -53 -6.5t-38.5 -18.5t-29 -29t-25.5 -38l-40 -67q-41 -69 -75.5 -112.5t-71 -68t-78.5 -33.5t-99 -9h-105l55 96h61q31 0 54.5 6.5t44.5 25t44 51t54 84.5l39 65q35 58 74.5 89t96.5 45q-23 29 -23 71q0 23 7 48t21 51l47 88q16 32 16 52
q0 29 -25.5 46t-77.5 17h-33l55 96h53q42 0 72.5 -10.5t50 -28.5t29 -41.5t9.5 -50.5q0 -47 -24 -92l-55 -104q-19 -35 -19 -64t18.5 -44.5t53.5 -15.5h14l-16 -26z" />
  </font>
</defs>
</svg>
